<svg width="1488" height="132" viewBox="0 0 1488 132" fill="none" xmlns="http://www.w3.org/2000/svg">
<path d="M1485 1L1465.3 131L1460.38 81.9272H1450.53L1441.67 56.9603L1436.74 99.1457L1429.85 69.0132L1424.92 81.9272H1350.08L1337.27 35.4371L1327.42 120.669L1314.62 56.9603L1308.71 81.9272H1202.84L1198.16 66.4305L1191.52 81.9272H1185.85L1180.68 103.235L1166.4 1L1148.92 131L1141.29 81.9272H1131.69L1125.04 56.9603L1119.87 100.652L1113.47 70.5199L1110.02 81.9272H1031.23L1020.15 32.4238L1008.83 120.669L996.515 56.9603L988.636 84.0795H965" stroke="#107B9C" stroke-opacity="0.04" stroke-width="5"/>
<path d="M0 81.9272H34.9696L43.8332 56.9603L48.7575 99.1457L55.6514 69.0132L60.5756 81.9272H135.424L148.227 35.4371L158.076 120.669L170.879 56.9603L176.788 81.9272H282.659L287.337 66.4305L293.985 81.9272H299.648L304.818 103.235L319.098 1L336.579 131L344.212 81.9272H353.814L360.462 56.9603L365.632 100.652L372.034 70.5199L375.481 81.9272H454.269L465.348 32.4238L476.674 120.669L488.985 56.9603L496.864 84.0795H520.5" stroke="#107B9C" stroke-opacity="0.04" stroke-width="5"/>
</svg>
