<svg width="721" height="682" viewBox="0 0 721 682" fill="none" xmlns="http://www.w3.org/2000/svg">
<path d="M168.114 662.024C295.846 706.154 377.367 529.155 380.458 419.554C387.781 323.111 321.881 300.324 348.892 277.377C370.045 260.367 390.384 242.234 411.212 224.743C423.415 214.312 412.839 195.377 400.961 190.081C392.662 186.23 383.55 188.316 375.577 192.167C367.441 196.018 359.631 200.512 351.658 204.844C349.705 205.807 347.753 206.609 345.637 206.449C338.478 205.326 341.244 199.709 342.057 194.735C342.057 190.723 338.803 187.674 336.362 185.106C329.04 177.083 317.976 168.418 307.236 175.799C281.364 193.932 255.33 212.065 229.621 230.359C209.607 247.529 188.128 246.085 163.884 248.332C151.192 249.455 147.775 238.062 146.473 227.31C134.595 179.65 76.0169 221.533 55.5147 241.271C42.172 254.269 42.3347 271.279 54.8638 285.079C149.727 394.681 253.703 298.399 317.813 396.446C366.628 496.259 268.998 646.78 167.951 662.024M136.71 461.757C135.896 464.325 137.198 465.609 137.524 467.855C150.215 508.615 125.483 515.355 134.757 545.523C137.035 552.905 139.964 560.286 142.568 567.668C143.869 571.519 143.544 574.889 139.639 576.494C135.734 578.098 132.967 576.012 131.666 572.161C128.9 564.619 126.296 557.077 123.855 549.535C113.116 521.131 133.13 508.615 128.737 484.063C127.272 476.36 124.994 468.818 123.205 461.276C122.066 456.943 119.788 453.894 115.72 451.648C78.4577 427.256 90.1732 373.659 102.865 337.714C86.1053 328.567 70.4846 317.655 56.6537 304.336C51.1214 299.04 51.2841 299.201 46.2399 304.978C16.4629 339.479 8.97793 380.72 13.534 425.17C23.2969 504.603 62.1861 580.024 120.276 632.658C144.358 655.285 180.318 650.792 207.166 636.189C288.849 595.429 379.645 424.849 268.51 368.524C244.753 358.254 219.695 356.649 194.474 357.933C166.65 359.698 140.29 353.44 114.418 343.491C62.5115 481.174 181.62 431.268 239.058 498.345C246.218 504.282 265.256 544.881 249.798 546.967C245.567 547.128 243.614 543.918 243.614 540.067C242.313 513.268 222.299 493.691 199.518 483.742C200.495 494.654 195.939 503.48 192.521 513.268C188.942 521.613 176.575 513.589 182.921 506.208C188.128 499.949 190.569 480.532 182.433 476.521C167.463 471.386 152.331 466.732 136.873 461.757M354.912 187.995C362.56 184.625 371.184 181.255 379.482 176.762C401.612 165.048 432.365 193.13 427.483 218.003C426.507 223.298 423.415 229.236 419.51 232.766C400.31 249.936 380.621 266.465 360.933 282.993C351.82 290.696 351.658 290.535 358.98 300.324C457.26 430.305 320.254 757.344 145.008 664.913C37.7787 600.564 -55.783 403.507 39.5686 293.905C42.4974 290.856 42.3347 288.77 40.2194 285.4C13.2086 237.259 78.1322 203.24 115.069 193.932C136.71 189.439 152.656 201.153 157.863 223.619C159.707 231.536 164.48 235.227 172.182 234.692C179.016 234.21 185.85 233.569 192.684 233.408C205.376 232.927 214.814 225.545 224.577 218.645C249.96 200.672 275.507 182.86 300.89 165.048C321.881 149.963 341.081 171.146 354.587 187.995" fill="#E9EFF1" fill-opacity="0.3"/>
<mask id="mask0_1_1269" style="mask-type:alpha" maskUnits="userSpaceOnUse" x="185" y="0" width="536" height="520">
<rect x="185" width="536" height="520" fill="#8ECCDF"/>
</mask>
<g mask="url(#mask0_1_1269)">
</g>
</svg>
