<svg width="119" height="21" viewBox="0 0 119 21" fill="none" xmlns="http://www.w3.org/2000/svg">
<path d="M9.89203 5.94629C7.43673 5.94629 5.40234 7.97772 5.40234 10.5081C5.40234 13.0385 7.40166 15.0699 9.89203 15.0699C12.3824 15.0699 14.3817 13.0028 14.3817 10.5081C14.3817 8.01336 12.3473 5.94629 9.89203 5.94629ZM9.89203 13.4305C8.31363 13.4305 7.01583 12.1119 7.01583 10.5081C7.01583 8.90434 8.31363 7.58569 9.89203 7.58569C11.4704 7.58569 12.7682 8.90434 12.7682 10.5081C12.7682 12.1119 11.4704 13.4305 9.89203 13.4305Z" fill="#003E67"/>
<path d="M14.5572 6.87135C15.119 6.87135 15.5744 6.40882 15.5744 5.83826C15.5744 5.2677 15.119 4.80518 14.5572 4.80518C13.9955 4.80518 13.54 5.2677 13.54 5.83826C13.54 6.40882 13.9955 6.87135 14.5572 6.87135Z" fill="#003E67"/>
<path d="M17.1879 3.16677C16.2759 2.20451 14.9781 1.70557 13.5049 1.70557H6.27933C3.22775 1.70557 1.19336 3.77264 1.19336 6.87324V14.1793C1.19336 15.7117 1.68442 17.0304 2.66654 17.9926C3.61358 18.9193 4.87631 19.3826 6.31441 19.3826H13.4699C14.9781 19.3826 16.2408 18.8836 17.1528 17.9926C18.0998 17.066 18.5909 15.7474 18.5909 14.2149V6.87324C18.5909 5.3764 18.0998 4.09339 17.1879 3.16677ZM17.0476 14.2149C17.0476 15.3197 16.6617 16.2107 16.0304 16.8166C15.399 17.4224 14.5221 17.7432 13.4699 17.7432H6.31441C5.26214 17.7432 4.38525 17.4224 3.75388 16.8166C3.12252 16.1751 2.80684 15.2841 2.80684 14.1793V6.87324C2.80684 5.80407 3.12252 4.91309 3.75388 4.27158C4.35017 3.66572 5.26214 3.34497 6.31441 3.34497H13.54C14.5923 3.34497 15.4692 3.66572 16.1005 4.30722C16.6968 4.94873 17.0476 5.8397 17.0476 6.87324V14.2149Z" fill="#003E67"/>
<path d="M41.074 8.35674H38.6795V6.76105C38.6795 6.1618 39.0704 6.02209 39.3457 6.02209C39.6204 6.02209 41.0355 6.02209 41.0355 6.02209V3.38765L38.7083 3.37842C36.1249 3.37842 35.537 5.34327 35.537 6.60066V8.35674H34.043V11.0714H35.537C35.537 14.5552 35.537 18.7529 35.537 18.7529H38.6795C38.6795 18.7529 38.6795 14.5138 38.6795 11.0714H40.7999L41.074 8.35674Z" fill="#003E67"/>
<path d="M81.2673 5.23517C81.0387 4.3657 80.3648 3.68105 79.5091 3.44867C77.958 3.02637 71.7389 3.02637 71.7389 3.02637C71.7389 3.02637 65.5198 3.02637 63.9686 3.44867C63.1131 3.68105 62.4391 4.3657 62.2104 5.23517C61.7949 6.81103 61.7949 10.0991 61.7949 10.0991C61.7949 10.0991 61.7949 13.387 62.2104 14.9627C62.4391 15.8322 63.1131 16.517 63.9686 16.7494C65.5198 17.1715 71.7389 17.1715 71.7389 17.1715C71.7389 17.1715 77.958 17.1715 79.5091 16.7494C80.3648 16.517 81.0387 15.8322 81.2673 14.9627C81.6828 13.387 81.6828 10.0991 81.6828 10.0991C81.6828 10.0991 81.6828 6.81103 81.2673 5.23517ZM69.75 13.1302V7.06788L74.9169 10.0991L69.75 13.1302Z" fill="#003E67"/>
<g clip-path="url(#clip0_1_1240)">
<path d="M118.615 18.7491C118.615 18.7048 118.615 18.6712 118.615 18.6365C118.615 16.303 118.613 13.9682 118.615 11.6346C118.615 10.8707 118.538 10.12 118.319 9.38727C118.064 8.53359 117.65 7.77808 116.963 7.19858C115.85 6.25869 114.539 6.09945 113.168 6.29341C112.095 6.44547 111.293 7.06089 110.694 7.96007C110.658 8.01276 110.632 8.07861 110.543 8.1277V6.48858H106.403C106.369 6.54485 106.378 6.59514 106.378 6.64423C106.381 7.16506 106.386 7.68709 106.388 8.20792C106.392 10.2098 106.395 12.2105 106.399 14.2124C106.403 15.672 106.409 17.1327 106.407 18.5922C106.407 18.7263 106.436 18.7586 106.567 18.7586C107.855 18.7539 109.143 18.7562 110.432 18.755C110.479 18.755 110.53 18.7694 110.575 18.7347C110.578 18.7203 110.582 18.7072 110.582 18.6928C110.579 17.8188 110.569 16.9447 110.571 16.0707C110.573 14.5214 110.544 12.972 110.586 11.4227C110.617 10.2841 111.601 9.36931 112.724 9.40403C113.328 9.42199 113.824 9.6423 114.121 10.2074C114.382 10.7019 114.474 11.2419 114.477 11.7891C114.49 14.0484 114.482 16.3089 114.482 18.5683V18.7503H118.614L118.615 18.7491Z" fill="#003E67"/>
<path d="M104.511 18.7465V6.48242H100.439V18.7465H104.511Z" fill="#003E67"/>
<path d="M102.403 0.716593C102.226 0.718987 102.051 0.728566 101.875 0.757301C101.049 0.892598 100.374 1.50802 100.207 2.28148C100.01 3.19264 100.314 4.03195 101.037 4.51686C101.626 4.91198 102.282 4.98022 102.96 4.83535C103.723 4.67252 104.285 4.23789 104.525 3.47999C104.768 2.71491 104.635 1.99652 104.09 1.38709C103.64 0.884217 103.055 0.708211 102.403 0.716593Z" fill="#003E67"/>
</g>
<defs>
<clipPath id="clip0_1_1240">
<rect width="18.4674" height="18.0423" fill="white" transform="translate(100.149 0.716309)"/>
</clipPath>
</defs>
</svg>
