<svg width="18" height="18" viewBox="0 0 18 18" fill="none" xmlns="http://www.w3.org/2000/svg">
<path d="M9 0.75C7.20979 0.75 5.4929 1.46116 4.22703 2.72703C2.96116 3.9929 2.25 5.70979 2.25 7.5C2.25 13.5 9 17.25 9 17.25C9 17.25 15.75 13.5 15.75 7.5C15.75 5.70979 15.0388 3.9929 13.773 2.72703C12.5071 1.46116 10.7902 0.75 9 0.75ZM9 10.5C8.40666 10.5 7.82664 10.3241 7.33329 9.99441C6.83994 9.66476 6.45542 9.19623 6.22836 8.64805C6.0013 8.09987 5.94189 7.49667 6.05764 6.91473C6.1734 6.33279 6.45912 5.79824 6.87868 5.37868C7.29824 4.95912 7.83279 4.6734 8.41473 4.55764C8.99667 4.44189 9.59987 4.5013 10.1481 4.72836C10.6962 4.95542 11.1648 5.33994 11.4944 5.83329C11.8241 6.32664 12 6.90666 12 7.5C12 8.29565 11.6839 9.05871 11.1213 9.62132C10.5587 10.1839 9.79565 10.5 9 10.5Z" fill="#8ECCDF"/>
</svg>
