<svg width="133" height="133" viewBox="0 0 133 133" fill="none" xmlns="http://www.w3.org/2000/svg">
<g clip-path="url(#clip0_1_1452)">
<path d="M73.7637 0.424277C74.9409 0.549065 75.8426 0.94839 76.4938 1.62225C77.145 2.29611 77.4205 3.14467 77.3203 4.16794C77.2202 5.19121 76.7693 5.9649 76.0179 6.46406C75.2665 6.96321 74.2646 7.16288 73.0874 7.03809L72.9621 7.11296L70.1318 6.83843L69.6559 11.6054L68.2533 11.4556L69.4055 -0.0249634L73.7637 0.399319V0.424277ZM73.2126 5.84011C74.0392 5.91499 74.6653 5.81516 75.1162 5.51566C75.542 5.21617 75.7925 4.71701 75.8676 4.04315C75.9428 3.36929 75.7925 2.82022 75.4168 2.44586C75.0411 2.07149 74.465 1.82191 73.6384 1.74704L70.6829 1.44755L70.2821 5.54062L73.2377 5.84011H73.2126ZM73.9891 6.18952L77.2202 12.3541L75.567 12.1794L72.7618 6.81347L74.0141 6.16457L73.9891 6.18952Z" fill="#003E67"/>
<path d="M80.0504 13.1028L83.6071 2.1214L91.3216 4.61718L90.9209 5.86507L84.5339 3.81853L83.3817 7.36253L88.341 8.95983L87.9403 10.2077L82.9559 8.61042L81.7536 12.3042L88.3911 14.4505L87.9904 15.6984L80.0254 13.1278L80.0504 13.1028Z" fill="#003E67"/>
<path d="M94.5527 19.3672C93.6009 18.8181 92.8996 18.1193 92.4738 17.2957C92.023 16.4721 91.8476 15.5736 91.9228 14.6003C91.9979 13.6269 92.3486 12.6037 92.9747 11.5305C93.6009 10.4573 94.3273 9.6836 95.1789 9.15949C96.0305 8.63538 96.9322 8.36084 97.884 8.36084C98.8358 8.36084 99.7875 8.63538 100.714 9.18445C101.691 9.75848 102.392 10.4074 102.793 11.1561C103.194 11.8799 103.369 12.7534 103.294 13.7517L101.841 13.7018C101.967 13.003 101.841 12.3541 101.566 11.7801C101.29 11.206 100.764 10.7069 100.063 10.3075C99.3868 9.90822 98.6855 9.73352 97.9842 9.73352C97.2828 9.73352 96.6066 9.95814 95.9553 10.3824C95.3041 10.8067 94.728 11.4306 94.2521 12.2792C93.7512 13.1028 93.4757 13.9015 93.3755 14.6502C93.2753 15.3989 93.3755 16.0728 93.7262 16.6967C94.0518 17.3207 94.5778 17.8448 95.3041 18.2691C95.7299 18.5187 96.1307 18.6934 96.5565 18.7932C96.9823 18.893 97.383 18.918 97.7838 18.8681C98.1845 18.8181 98.5352 18.6684 98.8859 18.4438C99.2365 18.2192 99.512 17.8698 99.7875 17.4455L99.9879 17.0961L96.807 15.2492L97.4832 14.1261L101.766 16.6219L98.8107 21.6384L97.8589 21.0893L98.8859 19.1925L99.1113 19.3922C98.4851 19.8664 97.7838 20.091 97.0073 20.116C96.2309 20.1409 95.4294 19.8913 94.6028 19.3922L94.5527 19.3672Z" fill="#003E67"/>
<path d="M110.107 16.1227L102.643 24.9328L101.566 24.0343L109.03 15.2242L110.107 16.1227Z" fill="#003E67"/>
<path d="M117.145 22.8863C117.821 23.66 118.222 24.4586 118.398 25.2822C118.573 26.1058 118.498 26.9794 118.222 27.8529L116.769 27.5534C117.045 26.7298 117.12 26.031 117.02 25.407C116.895 24.7831 116.594 24.2091 116.068 23.6101C115.667 23.1359 115.267 22.8114 114.866 22.6367C114.465 22.437 114.089 22.3871 113.764 22.4121C113.438 22.437 113.113 22.6118 112.837 22.8364C112.537 23.1109 112.336 23.4354 112.286 23.8347C112.211 24.234 112.361 24.7831 112.737 25.4819L113.964 27.7281C114.515 28.7264 114.741 29.55 114.64 30.1989C114.54 30.8478 114.24 31.4218 113.664 31.896C113.163 32.3203 112.612 32.5699 111.985 32.6198C111.359 32.6697 110.733 32.5449 110.082 32.2205C109.431 31.896 108.804 31.3969 108.228 30.723C107.677 30.0991 107.277 29.4502 107.026 28.8262C106.776 28.2023 106.65 27.5784 106.65 26.9794C106.65 26.3804 106.726 25.8313 106.901 25.2822L108.454 25.5568C108.253 26.006 108.153 26.4802 108.128 26.9794C108.103 27.4785 108.178 27.9527 108.354 28.4519C108.529 28.951 108.83 29.4502 109.255 29.9244C109.656 30.3736 110.032 30.723 110.433 30.9476C110.833 31.1723 111.209 31.2971 111.585 31.2721C111.96 31.2471 112.286 31.1224 112.612 30.8478C112.887 30.5982 113.062 30.2987 113.138 29.9244C113.213 29.55 113.062 29.0509 112.737 28.4519L111.434 26.006C111.084 25.3571 110.883 24.7831 110.808 24.259C110.733 23.7349 110.808 23.2856 110.959 22.8863C111.109 22.487 111.384 22.1376 111.735 21.8381C112.211 21.4387 112.737 21.1892 113.363 21.1143C113.989 21.0394 114.615 21.1143 115.292 21.4138C115.943 21.6883 116.569 22.1625 117.17 22.8364L117.145 22.8863Z" fill="#003E67"/>
<path d="M126.838 37.5864L125.686 38.2353L123.683 34.7412L114.791 39.8326L114.089 38.6097L122.981 33.5183L120.977 30.0242L122.13 29.3753L126.838 37.5615V37.5864Z" fill="#003E67"/>
<path d="M117.847 45.9473L128.842 42.3783L131.372 50.0653L130.12 50.4646L128.041 44.1004L124.484 45.2484L126.112 50.1901L124.86 50.5894L123.232 45.6478L119.525 46.8457L121.679 53.4595L120.426 53.8589L117.821 45.9223L117.847 45.9473Z" fill="#003E67"/>
<path d="M132.975 60.0484C133.1 61.2214 132.9 62.1948 132.349 62.9685C131.823 63.7422 131.046 64.1664 129.994 64.2912C128.967 64.3911 128.116 64.1165 127.465 63.4676C126.813 62.8187 126.438 61.8953 126.312 60.7223L126.212 60.5975L125.912 57.7772L121.128 58.2764L120.977 56.8788L132.499 55.7057L132.95 60.0484H132.975ZM127.364 61.4211L121.954 65.8137L121.779 64.1664L126.488 60.3479L127.364 61.446V61.4211ZM127.565 60.5975C127.64 61.4211 127.89 62.0201 128.266 62.3695C128.642 62.7438 129.193 62.8686 129.869 62.8187C130.545 62.7438 131.046 62.4943 131.347 62.07C131.647 61.6457 131.748 60.9968 131.673 60.1732L131.372 57.2282L127.264 57.6525L127.565 60.5975Z" fill="#003E67"/>
<path d="M130.245 86.878L119.024 84.1077L119.349 82.76L130.57 85.5303L130.245 86.878ZM132.098 79.4406L120.877 76.6703L121.203 75.3226L132.424 78.0929L132.098 79.4406ZM125.536 84.9313L124.259 84.6069L126.087 77.2693L127.364 77.5937L125.536 84.9313Z" fill="#003E67"/>
<path d="M117.546 87.8264L127.89 93.0176L124.234 100.255L123.056 99.6564L126.062 93.6665L122.731 91.9944L120.376 96.6365L119.199 96.0375L121.553 91.3954L118.072 89.6483L114.941 95.8628L113.764 95.2638L117.521 87.8015L117.546 87.8264Z" fill="#003E67"/>
<path d="M113.313 105.521L106.375 104.848L107.427 103.55L113.463 104.124L113.338 105.521H113.313ZM118.272 108.491C117.521 109.415 116.694 109.964 115.793 110.114C114.866 110.288 114.014 110.039 113.188 109.39C112.386 108.741 111.96 107.967 111.985 107.044C111.985 106.12 112.361 105.197 113.088 104.299V104.149L114.866 101.953L111.134 98.9576L112.011 97.8594L121.027 105.097L118.272 108.491ZM114.039 105.072C113.513 105.721 113.263 106.295 113.288 106.819C113.288 107.343 113.588 107.818 114.114 108.267C114.64 108.691 115.192 108.866 115.692 108.766C116.218 108.666 116.744 108.292 117.245 107.643L119.099 105.347L115.868 102.751L114.014 105.047L114.039 105.072Z" fill="#003E67"/>
<path d="M104.146 106.869L111.434 115.829L105.123 120.92L104.296 119.897L109.506 115.679L107.151 112.784L103.094 116.054L102.267 115.03L106.325 111.761L103.87 108.741L98.4601 113.109L97.6335 112.085L104.146 106.819V106.869Z" fill="#003E67"/>
<path d="M64.8469 127.21L61.1149 121.32H62.768L66.0241 126.436L64.8469 127.185V127.21ZM65.5482 132.925C64.371 132.925 63.4192 132.576 62.7179 131.977C62.0166 131.378 61.6659 130.529 61.6909 129.506C61.6909 128.458 62.0917 127.659 62.8181 127.11C63.5444 126.536 64.4962 126.261 65.6734 126.286L65.7987 126.211L68.629 126.261L68.7041 121.47H70.1068L69.9064 133.025L65.5232 132.95L65.5482 132.925ZM65.6484 127.484C64.8218 127.484 64.1957 127.634 63.7949 127.959C63.3942 128.283 63.1687 128.807 63.1687 129.506C63.1687 130.205 63.3441 130.704 63.7448 131.053C64.1456 131.403 64.7467 131.577 65.5983 131.602L68.5539 131.652L68.629 127.534L65.6734 127.484H65.6484Z" fill="#003E67"/>
<path d="M58.1844 120.895L55.6796 132.151L47.7648 130.404L48.0403 129.132L54.6026 130.579L55.4041 126.935L50.2945 125.812L50.57 124.539L55.6796 125.662L56.5312 121.869L49.7184 120.346L49.994 119.074L58.1844 120.895Z" fill="#003E67"/>
<path d="M43.131 115.979C44.1329 116.453 44.8843 117.077 45.4103 117.851C45.9363 118.624 46.1868 119.498 46.2118 120.496C46.2369 121.494 45.9864 122.518 45.4604 123.641C44.9344 124.739 44.2832 125.612 43.4817 126.211C42.6802 126.81 41.8036 127.16 40.8518 127.26C39.9 127.36 38.9231 127.16 37.9463 126.711C36.9194 126.236 36.168 125.637 35.6921 124.939C35.2162 124.24 34.9907 123.391 34.9657 122.393L36.4184 122.293C36.3683 122.992 36.5186 123.641 36.8693 124.165C37.2199 124.714 37.771 125.163 38.4973 125.488C39.1987 125.812 39.9 125.937 40.6013 125.862C41.3026 125.787 41.9538 125.513 42.555 125.014C43.1561 124.514 43.6821 123.865 44.0828 122.967C44.4836 122.093 44.709 121.27 44.7341 120.521C44.7591 119.772 44.5838 119.099 44.2081 118.524C43.8324 117.95 43.2563 117.476 42.4798 117.102C42.054 116.902 41.6032 116.777 41.1774 116.703C40.7516 116.628 40.3508 116.653 39.9501 116.752C39.5744 116.852 39.2237 117.027 38.8981 117.277C38.5725 117.551 38.322 117.901 38.0966 118.35L37.9213 118.724L41.2525 120.272L40.7015 121.47L36.2181 119.373L38.6977 114.107L39.6996 114.581L38.848 116.553L38.5975 116.378C39.1736 115.854 39.8499 115.555 40.6263 115.48C41.3777 115.405 42.2043 115.555 43.081 115.979H43.131Z" fill="#003E67"/>
<path d="M28.0026 120.671L34.6151 111.212L35.7672 112.011L29.1548 121.469L28.0026 120.671Z" fill="#003E67"/>
<path d="M20.3382 114.581C19.6119 113.882 19.1109 113.134 18.8604 112.31C18.61 111.511 18.5849 110.638 18.8103 109.714L20.2881 109.864C20.0877 110.713 20.0627 111.412 20.238 112.011C20.4134 112.609 20.7891 113.184 21.3401 113.708C21.791 114.132 22.2167 114.431 22.6425 114.581C23.0433 114.731 23.419 114.781 23.7697 114.681C24.0953 114.606 24.3958 114.431 24.6463 114.182C24.9218 113.882 25.0972 113.533 25.1222 113.134C25.1473 112.734 24.9469 112.21 24.5211 111.536L23.0934 109.415C22.4672 108.467 22.1667 107.668 22.1917 107.019C22.2167 106.37 22.4923 105.771 22.9932 105.247C23.4441 104.773 23.97 104.473 24.5962 104.373C25.2224 104.274 25.8486 104.324 26.5248 104.598C27.2011 104.848 27.8523 105.297 28.5036 105.921C29.1047 106.495 29.5555 107.094 29.8561 107.693C30.1567 108.292 30.332 108.891 30.4071 109.49C30.4572 110.089 30.4322 110.638 30.307 111.187L28.729 111.062C28.8793 110.588 28.9294 110.114 28.9294 109.615C28.9294 109.14 28.7791 108.641 28.5537 108.167C28.3282 107.693 27.9776 107.219 27.5017 106.794C27.0759 106.37 26.6501 106.071 26.2243 105.871C25.7985 105.671 25.4228 105.596 25.0471 105.646C24.6714 105.696 24.3458 105.871 24.0702 106.145C23.8198 106.42 23.6695 106.744 23.6444 107.119C23.6194 107.493 23.7947 107.992 24.1704 108.566L25.6983 110.887C26.099 111.486 26.3495 112.06 26.4748 112.56C26.6 113.059 26.5749 113.533 26.4748 113.932C26.3495 114.357 26.1241 114.706 25.7985 115.055C25.3727 115.505 24.8467 115.779 24.2456 115.929C23.6444 116.079 22.9932 116.029 22.2919 115.804C21.6156 115.579 20.9393 115.155 20.2881 114.556L20.3382 114.581Z" fill="#003E67"/>
<path d="M9.29248 100.78L10.3695 100.031L12.6989 103.325L21.0897 97.4601L21.8912 98.6082L13.5004 104.473L15.8298 107.768L14.7527 108.516L9.31753 100.804L9.29248 100.78Z" fill="#003E67"/>
<path d="M17.5079 91.7198L6.88793 96.3121L3.65686 88.8996L4.85912 88.3755L7.53916 94.5151L10.9706 93.0426L8.8917 88.2757L10.094 87.7515L12.1729 92.5185L15.7546 90.9711L12.9744 84.5819L14.1766 84.0578L17.5079 91.7198Z" fill="#003E67"/>
<path d="M1.10205 78.9914C0.876624 77.8433 0.976812 76.845 1.45271 76.0464C1.90355 75.2227 2.65497 74.7236 3.6819 74.5239C4.70883 74.3243 5.56043 74.5239 6.26175 75.098C6.96307 75.672 7.43896 76.5705 7.66438 77.7185L7.76457 77.8184L8.31561 80.5887L13.0245 79.6652L13.3 81.0379L1.95365 83.2592L1.10205 78.9664V78.9914ZM6.46212 77.9681C6.31184 77.1695 6.01128 76.5954 5.58548 76.271C5.15968 75.9465 4.63369 75.8467 3.95742 75.9715C3.28114 76.0963 2.80525 76.3958 2.55478 76.87C2.30431 77.3192 2.25421 77.9681 2.4045 78.7668L2.98058 81.6619L7.03821 80.8632L6.46212 77.9681ZM6.58736 77.1195L11.5717 72.2528L11.8973 73.875L7.56419 78.1179L6.58736 77.1195Z" fill="#003E67"/>
<path d="M0.200377 59.699L11.6469 61.3961L11.4465 62.7688L0 61.0717L0.200377 59.699ZM1.3275 52.1368L12.774 53.8339L12.5736 55.2066L1.12712 53.5095L1.3275 52.1368ZM6.21168 53.6342L7.51412 53.8339L6.38701 61.3212L5.08456 61.1216L6.21168 53.6342Z" fill="#003E67"/>
<path d="M13.9262 49.9655L3.15594 45.7726L6.1115 38.2353L7.33881 38.7095L4.88419 44.949L8.36574 46.2967L10.2693 41.4549L11.4966 41.9291L9.59304 46.7709L13.2249 48.1935L15.7546 41.7294L16.9819 42.2036L13.9262 49.9904V49.9655Z" fill="#003E67"/>
<path d="M11.2962 29.3753C11.9474 28.402 12.7239 27.778 13.6256 27.5284C14.5273 27.2789 15.4039 27.4286 16.2806 28.0026C17.1572 28.5767 17.6331 29.3254 17.7083 30.2488C17.7834 31.1723 17.5079 32.1207 16.8567 33.094V33.2438L15.2787 35.5898L19.2862 38.2353L18.5098 39.4083L8.86664 33.0192L11.2962 29.3753ZM15.8297 32.3952C16.2806 31.6964 16.481 31.0974 16.4309 30.5733C16.3557 30.0492 16.0552 29.5999 15.4791 29.2256C14.903 28.8512 14.3519 28.7264 13.851 28.8762C13.3501 29.0259 12.8491 29.4252 12.3983 30.124L10.7702 32.5949L14.2267 34.866L15.8548 32.3952H15.8297ZM16.506 31.8711L23.4941 31.921L22.5674 33.2937H16.506V31.8711Z" fill="#003E67"/>
<path d="M25.4729 29.7746L17.3827 21.5136L23.1936 15.8731L24.1204 16.8215L19.3113 21.4886L21.9162 24.1591L25.6482 20.5153L26.575 21.4637L22.843 25.1075L25.5731 27.8778L30.5575 23.0111L31.4842 23.9595L25.4979 29.7996L25.4729 29.7746Z" fill="#003E67"/>
<path d="M48.0045 7.06242C47.8404 6.61651 47.3445 6.38526 46.9186 6.56333C46.4926 6.7414 46.2415 7.22312 46.4197 7.64906C46.4888 7.84789 46.6436 8.1374 47.0455 8.33204C47.4474 8.52669 48.6888 8.80613 48.6888 8.80613C48.6888 8.80613 49.4241 7.7678 49.6186 7.36596C49.8132 6.96411 49.7066 6.64881 49.6375 6.44998C49.4735 6.00407 48.9776 5.77283 48.5516 5.95089C48.1257 6.12896 47.8746 6.61068 48.0527 7.03663" fill="#003E67"/>
<path d="M85.2175 125.234C85.3585 125.688 85.8419 125.944 86.2764 125.788C86.7109 125.632 86.9863 125.164 86.8302 124.729C86.7714 124.527 86.6316 124.23 86.2401 124.015C85.8487 123.8 84.6232 123.457 84.6232 123.457C84.6232 123.457 83.8358 124.457 83.6209 124.848C83.406 125.24 83.4964 125.56 83.5552 125.762C83.6962 126.216 84.1797 126.472 84.6141 126.316C85.0486 126.16 85.3241 125.692 85.168 125.257" fill="#003E67"/>
<path d="M73.5059 44C75.1593 51.0135 83.0957 65.0406 95.0003 65.0406C88.3866 68.0464 73.5059 77.0638 73.5059 89.087" stroke="#003E67" stroke-width="1.5"/>
<line x1="92.9093" y1="65.7908" x2="40" y2="65.7908" stroke="#003E67" stroke-width="1.5"/>
</g>
<defs>
<clipPath id="clip0_1_1452">
<rect width="133" height="133" fill="white"/>
</clipPath>
</defs>
</svg>
