<svg width="99" height="99" viewBox="0 0 99 99" fill="none" xmlns="http://www.w3.org/2000/svg">
<g clip-path="url(#clip0_16_9)">
<path d="M54.9068 0.315842C55.7831 0.40873 56.4543 0.705971 56.939 1.20757C57.4238 1.70916 57.6288 2.3408 57.5543 3.10248C57.4797 3.86416 57.1441 4.44007 56.5848 4.81162C56.0255 5.18317 55.2797 5.33179 54.4034 5.2389L54.3102 5.29464L52.2034 5.09028L51.8492 8.6386L50.8051 8.52714L51.6627 -0.0185547L54.9068 0.297264V0.315842ZM54.4966 4.34718C55.1119 4.40291 55.578 4.3286 55.9136 4.10567C56.2305 3.88274 56.417 3.51119 56.4729 3.00959C56.5288 2.508 56.417 2.09929 56.1373 1.82063C55.8577 1.54196 55.4288 1.35619 54.8136 1.30045L52.6136 1.07752L52.3153 4.12425L54.5153 4.34718H54.4966ZM55.0746 4.60727L57.4797 9.19593L56.2492 9.06589L54.161 5.07171L55.0932 4.58869L55.0746 4.60727Z" fill="#8ECCDF"/>
<path d="M59.5865 9.75324L62.2339 1.5791L67.9763 3.43686L67.678 4.36574L62.9237 2.84238L62.0661 5.4804L65.7576 6.66936L65.4593 7.59824L61.7492 6.40928L60.8542 9.15876L65.7949 10.7564L65.4966 11.6853L59.5678 9.77182L59.5865 9.75324Z" fill="#8ECCDF"/>
<path d="M70.3813 14.4164C69.6729 14.0076 69.1508 13.4875 68.8339 12.8744C68.4983 12.2614 68.3678 11.5926 68.4237 10.868C68.4796 10.1435 68.7407 9.38182 69.2068 8.58299C69.6729 7.78415 70.2135 7.20825 70.8474 6.81812C71.4813 6.42799 72.1525 6.22363 72.861 6.22363C73.5695 6.22363 74.278 6.42799 74.9678 6.83669C75.6949 7.26398 76.2169 7.747 76.5152 8.30432C76.8135 8.84307 76.9441 9.49329 76.8881 10.2364L75.8068 10.1992C75.9 9.67906 75.8068 9.19605 75.6017 8.76876C75.3966 8.34148 75.0051 7.96993 74.483 7.67269C73.9796 7.37544 73.4576 7.2454 72.9356 7.2454C72.4135 7.2454 71.9102 7.4126 71.4254 7.72842C70.9407 8.04424 70.5119 8.50868 70.1576 9.14032C69.7847 9.75338 69.5796 10.3479 69.5051 10.9052C69.4305 11.4625 69.5051 11.9641 69.7661 12.4285C70.0085 12.893 70.4 13.2831 70.9407 13.5989C71.2576 13.7847 71.5559 13.9148 71.8729 13.9891C72.1898 14.0634 72.4881 14.082 72.7864 14.0448C73.0847 14.0076 73.3457 13.8962 73.6068 13.729C73.8678 13.5618 74.0729 13.3017 74.278 12.9859L74.4271 12.7258L72.0593 11.351L72.5627 10.5151L75.7508 12.3728L73.5508 16.1069L72.8424 15.6982L73.6068 14.2863L73.7746 14.4349C73.3085 14.7879 72.7864 14.9551 72.2085 14.9737C71.6305 14.9923 71.0339 14.8065 70.4186 14.4349L70.3813 14.4164Z" fill="#8ECCDF"/>
<path d="M81.9593 12.0013L76.4034 18.5592L75.6017 17.8904L81.1576 11.3325L81.9593 12.0013Z" fill="#8ECCDF"/>
<path d="M87.1983 17.0359C87.7017 17.6118 88 18.2063 88.1305 18.8193C88.261 19.4324 88.2051 20.0826 88 20.7328L86.9187 20.5099C87.1238 19.8968 87.1797 19.3767 87.1051 18.9122C87.0119 18.4478 86.7882 18.0205 86.3966 17.5746C86.0983 17.2217 85.8 16.9802 85.5017 16.8501C85.2034 16.7015 84.9238 16.6643 84.6814 16.6829C84.439 16.7015 84.1966 16.8315 83.9916 16.9987C83.7678 17.2031 83.6187 17.4446 83.5814 17.7418C83.5255 18.0391 83.6373 18.4478 83.917 18.968L84.8305 20.6399C85.2407 21.383 85.4085 21.9961 85.3339 22.4791C85.2594 22.9621 85.0356 23.3894 84.6068 23.7424C84.2339 24.0582 83.8238 24.244 83.3577 24.2811C82.8916 24.3183 82.4255 24.2254 81.9407 23.9839C81.456 23.7424 80.9899 23.3708 80.561 22.8693C80.1509 22.4048 79.8526 21.9218 79.6661 21.4574C79.4797 20.9929 79.3865 20.5285 79.3865 20.0826C79.3865 19.6368 79.4424 19.228 79.5729 18.8193L80.7288 19.0237C80.5797 19.3581 80.5051 19.7111 80.4865 20.0826C80.4678 20.4542 80.5238 20.8071 80.6543 21.1787C80.7848 21.5502 81.0085 21.9218 81.3255 22.2748C81.6238 22.6092 81.9034 22.8693 82.2017 23.0364C82.5 23.2036 82.7797 23.2965 83.0594 23.278C83.339 23.2594 83.5814 23.1665 83.8238 22.9621C84.0288 22.7764 84.1593 22.5534 84.2153 22.2748C84.2712 21.9961 84.1593 21.6246 83.917 21.1787L82.9475 19.3581C82.6865 18.8751 82.5373 18.4478 82.4814 18.0577C82.4255 17.6675 82.4814 17.3331 82.5932 17.0359C82.7051 16.7386 82.9102 16.4786 83.1712 16.2556C83.5255 15.9584 83.917 15.7726 84.3831 15.7169C84.8492 15.6611 85.3153 15.7169 85.8187 15.9398C86.3034 16.1442 86.7695 16.4971 87.217 16.9987L87.1983 17.0359Z" fill="#8ECCDF"/>
<path d="M94.4135 27.9778L93.5559 28.4608L92.0644 25.8599L85.4457 29.6497L84.9237 28.7394L91.5423 24.9496L90.0508 22.3487L90.9085 21.8657L94.4135 27.9592V27.9778Z" fill="#8ECCDF"/>
<path d="M87.7204 34.2015L95.9051 31.5449L97.7882 37.2668L96.856 37.5641L95.3085 32.8268L92.661 33.6813L93.8729 37.3597L92.9407 37.657L91.7288 33.9786L88.9695 34.8703L90.5729 39.7934L89.6407 40.0906L87.7017 34.1829L87.7204 34.2015Z" fill="#8ECCDF"/>
<path d="M98.9814 44.6978C99.0746 45.571 98.9254 46.2955 98.5153 46.8714C98.1237 47.4473 97.5458 47.7631 96.7627 47.856C95.9983 47.9303 95.3644 47.726 94.8797 47.243C94.3949 46.7599 94.1153 46.0726 94.022 45.1994L93.9475 45.1065L93.7237 43.0073L90.1627 43.3788L90.0508 42.3385L98.6271 41.4653L98.9627 44.6978H98.9814ZM94.8051 45.7196L90.778 48.9893L90.6475 47.7631L94.1525 44.9208L94.8051 45.7382V45.7196ZM94.9542 45.1065C95.0102 45.7196 95.1966 46.1655 95.4763 46.4255C95.7559 46.7042 96.1661 46.7971 96.6695 46.7599C97.1729 46.7042 97.5458 46.5184 97.7695 46.2026C97.9932 45.8868 98.0678 45.4038 98.0119 44.7907L97.7881 42.5986L94.7305 42.9144L94.9542 45.1065Z" fill="#8ECCDF"/>
<path d="M96.9492 64.6688L88.5966 62.6067L88.839 61.6035L97.1915 63.6656L96.9492 64.6688ZM98.3288 59.1327L89.9763 57.0706L90.2187 56.0674L98.5712 58.1295L98.3288 59.1327ZM93.4441 63.2198L92.4932 62.9783L93.8542 57.5164L94.8051 57.7579L93.4441 63.2198Z" fill="#8ECCDF"/>
<path d="M87.4966 65.3745L95.1966 69.2387L92.4746 74.6262L91.5983 74.1803L93.8356 69.7217L91.3559 68.477L89.6034 71.9324L88.7271 71.4866L90.4796 68.0311L87.8881 66.7307L85.5576 71.3565L84.6813 70.9107L87.4779 65.356L87.4966 65.3745Z" fill="#8ECCDF"/>
<path d="M84.3458 78.5461L79.1814 78.0445L79.9644 77.0785L84.4577 77.5058L84.3644 78.5461H84.3458ZM88.0373 80.7568C87.478 81.4442 86.8627 81.8529 86.1916 81.9644C85.5017 82.0944 84.8678 81.9086 84.2526 81.4256C83.656 80.9426 83.339 80.3667 83.3577 79.6793C83.3577 78.992 83.6373 78.3046 84.178 77.6358V77.5243L85.5017 75.8895L82.7238 73.6602L83.3763 72.8428L90.0882 78.2303L88.0373 80.7568ZM84.8865 78.2117C84.495 78.6947 84.3085 79.122 84.3272 79.5121C84.3272 79.9023 84.5509 80.2552 84.9424 80.5896C85.3339 80.9055 85.7441 81.0355 86.117 80.9612C86.5085 80.8869 86.9 80.6082 87.2729 80.1252L88.6526 78.4161L86.2475 76.484L84.8678 78.1931L84.8865 78.2117Z" fill="#8ECCDF"/>
<path d="M77.522 79.5494L82.9474 86.2187L78.2491 90.0086L77.6339 89.2469L81.5119 86.1073L79.7593 83.9523L76.739 86.3859L76.1237 85.6242L79.1441 83.1906L77.3169 80.9427L73.2898 84.1938L72.6746 83.4321L77.522 79.5122V79.5494Z" fill="#8ECCDF"/>
<path d="M48.2695 94.69L45.4915 90.3057H46.722L49.1458 94.1141L48.2695 94.6714V94.69ZM48.7915 98.9442C47.9152 98.9442 47.2068 98.6842 46.6847 98.2383C46.1627 97.7924 45.9017 97.1608 45.9203 96.3991C45.9203 95.6189 46.2186 95.0244 46.7593 94.6157C47.3 94.1884 48.0085 93.984 48.8847 94.0026L48.978 93.9469L51.0847 93.984L51.1407 90.4171H52.1847L52.0356 99.0186L48.7729 98.9628L48.7915 98.9442ZM48.8661 94.8943C48.2508 94.8943 47.7847 95.0058 47.4864 95.2473C47.1881 95.4888 47.0203 95.8789 47.0203 96.3991C47.0203 96.9193 47.1508 97.2908 47.4491 97.5509C47.7475 97.811 48.1949 97.9411 48.8288 97.9596L51.0288 97.9968L51.0847 94.9315L48.8847 94.8943H48.8661Z" fill="#8ECCDF"/>
<path d="M43.3102 89.99L41.4458 98.3685L35.5543 97.068L35.7593 96.1206L40.6441 97.1981L41.2407 94.4857L37.4373 93.6497L37.6424 92.7023L41.4458 93.5383L42.0797 90.7145L37.0085 89.5813L37.2136 88.6338L43.3102 89.99Z" fill="#8ECCDF"/>
<path d="M32.1051 86.3298C32.8508 86.6828 33.4101 87.1473 33.8017 87.7232C34.1932 88.2991 34.3796 88.9493 34.3983 89.6924C34.4169 90.4355 34.2305 91.1972 33.839 92.0332C33.4474 92.8506 32.9627 93.5008 32.3661 93.9467C31.7695 94.3925 31.1169 94.6526 30.4085 94.7269C29.7 94.8012 28.9729 94.6526 28.2457 94.3182C27.4813 93.9652 26.922 93.5194 26.5678 92.9992C26.2135 92.479 26.0457 91.8474 26.0271 91.1043L27.1085 91.03C27.0712 91.5501 27.183 92.0332 27.444 92.4233C27.7051 92.832 28.1152 93.1664 28.6559 93.4079C29.1779 93.6494 29.7 93.7423 30.222 93.6866C30.744 93.6308 31.2288 93.4265 31.6763 93.0549C32.1237 92.6834 32.5152 92.2004 32.8135 91.5316C33.1118 90.8814 33.2796 90.2683 33.2983 89.711C33.3169 89.1536 33.1864 88.652 32.9068 88.2248C32.6271 87.7975 32.1983 87.4445 31.6203 87.1658C31.3034 87.0172 30.9678 86.9243 30.6508 86.8686C30.3339 86.8129 30.0356 86.8314 29.7373 86.9057C29.4576 86.9801 29.1966 87.1101 28.9542 87.2959C28.7118 87.5002 28.5254 87.7603 28.3576 88.0947L28.2271 88.3734L30.7068 89.5252L30.2966 90.4169L26.9593 88.8564L28.8051 84.9365L29.5508 85.2895L28.9169 86.7571L28.7305 86.6271C29.1593 86.237 29.6627 86.014 30.2407 85.9583C30.8 85.9026 31.4152 86.014 32.0678 86.3298H32.1051Z" fill="#8ECCDF"/>
<path d="M20.8441 89.8226L25.7661 82.7817L26.6237 83.3762L21.7017 90.4171L20.8441 89.8226Z" fill="#8ECCDF"/>
<path d="M15.139 85.2898C14.5983 84.7696 14.2254 84.2123 14.039 83.5992C13.8525 83.0048 13.8339 82.3545 14.0017 81.6672L15.1017 81.7786C14.9525 82.4103 14.9339 82.9304 15.0644 83.3763C15.1949 83.8222 15.4746 84.2495 15.8847 84.6396C16.2203 84.9554 16.5373 85.1783 16.8542 85.2898C17.1525 85.4013 17.4322 85.4384 17.6932 85.3641C17.9356 85.3084 18.1593 85.1783 18.3457 84.9926C18.5508 84.7696 18.6813 84.5095 18.7 84.2123C18.7186 83.9151 18.5695 83.5249 18.2525 83.0233L17.1898 81.4442C16.7237 80.7383 16.5 80.1438 16.5186 79.6608C16.5373 79.1778 16.7424 78.7319 17.1152 78.3418C17.4508 77.9888 17.8424 77.7659 18.3085 77.6916C18.7746 77.6173 19.2407 77.6544 19.7441 77.8588C20.2474 78.0445 20.7322 78.3789 21.2169 78.8434C21.6644 79.2707 22 79.7165 22.2237 80.1624C22.4474 80.6082 22.578 81.0541 22.6339 81.5C22.6712 81.9458 22.6525 82.3545 22.5593 82.7632L21.3847 82.6704C21.4966 82.3174 21.5339 81.9644 21.5339 81.5929C21.5339 81.2399 21.422 80.8683 21.2542 80.5154C21.0864 80.1624 20.8254 79.8094 20.4712 79.4936C20.1542 79.1778 19.8373 78.9548 19.5203 78.8062C19.2034 78.6576 18.9237 78.6019 18.6441 78.639C18.3644 78.6762 18.122 78.8062 17.9169 79.0106C17.7305 79.2149 17.6186 79.4564 17.6 79.7351C17.5813 80.0138 17.7118 80.3853 17.9915 80.8126L19.1288 82.5403C19.4271 82.9862 19.6135 83.4135 19.7068 83.785C19.8 84.1566 19.7813 84.5095 19.7068 84.8068C19.6135 85.1226 19.4457 85.3827 19.2034 85.6428C18.8864 85.9772 18.4949 86.1815 18.0474 86.293C17.6 86.4045 17.1152 86.3673 16.5932 86.2001C16.0898 86.0329 15.5864 85.7171 15.1017 85.2712L15.139 85.2898Z" fill="#8ECCDF"/>
<path d="M6.91699 75.0162L7.71869 74.4589L9.45259 76.9111L15.6983 72.5454L16.295 73.4L10.0492 77.7657L11.7831 80.218L10.9814 80.7753L6.93564 75.0348L6.91699 75.0162Z" fill="#8ECCDF"/>
<path d="M13.0322 68.2727L5.12713 71.6909L2.72205 66.1734L3.61696 65.7833L5.61188 70.3533L8.16611 69.2573L6.61866 65.7089L7.51357 65.3188L9.06103 68.8671L11.7271 67.7153L9.65764 62.9595L10.5526 62.5693L13.0322 68.2727Z" fill="#8ECCDF"/>
<path d="M0.820378 58.7982C0.652582 57.9436 0.727158 57.2005 1.0814 56.606C1.41699 55.993 1.97631 55.6214 2.74072 55.4728C3.50512 55.3242 4.13902 55.4728 4.66106 55.9001C5.18309 56.3274 5.53733 56.9961 5.70512 57.8507L5.7797 57.925L6.18987 59.9871L9.69495 59.2998L9.90004 60.3215L1.45428 61.9749L0.820378 58.7796V58.7982ZM4.81021 58.0365C4.69834 57.442 4.47462 57.0147 4.15767 56.7732C3.84072 56.5317 3.44919 56.4574 2.9458 56.5503C2.44241 56.6432 2.08818 56.8661 1.90173 57.2191C1.71529 57.5535 1.67801 58.0365 1.78987 58.631L2.21868 60.786L5.23902 60.1915L4.81021 58.0365ZM4.90343 57.4049L8.6136 53.7822L8.85597 54.9898L5.63055 58.148L4.90343 57.4049Z" fill="#8ECCDF"/>
<path d="M0.149153 44.4376L8.66949 45.7009L8.52034 46.7226L0 45.4594L0.149153 44.4376ZM0.988136 38.8086L9.50847 40.0719L9.35932 41.0936L0.838983 39.8304L0.988136 38.8086ZM4.62373 39.9232L5.59322 40.0719L4.75424 45.6451L3.78475 45.4965L4.62373 39.9232Z" fill="#8ECCDF"/>
<path d="M10.3661 37.1924L2.34912 34.0714L4.54912 28.4609L5.46268 28.8139L3.63556 33.4583L6.22709 34.4615L7.64404 30.8574L8.5576 31.2104L7.14065 34.8145L9.84404 35.8734L11.7271 31.0618L12.6406 31.4148L10.3661 37.211V37.1924Z" fill="#8ECCDF"/>
<path d="M8.40845 21.8661C8.8932 21.1415 9.47116 20.6771 10.1423 20.4913C10.8135 20.3055 11.4661 20.417 12.1186 20.8443C12.7712 21.2716 13.1254 21.8289 13.1813 22.5163C13.2373 23.2036 13.0322 23.9096 12.5474 24.6341V24.7456L11.3729 26.4919L14.3559 28.4611L13.7779 29.3342L6.59998 24.5784L8.40845 21.8661ZM11.783 24.1139C12.1186 23.5938 12.2678 23.1479 12.2305 22.7578C12.1746 22.3676 11.9508 22.0332 11.522 21.7546C11.0932 21.4759 10.683 21.383 10.3101 21.4945C9.93726 21.606 9.56438 21.9032 9.22879 22.4234L8.01693 24.2626L10.5898 25.9531L11.8017 24.1139H11.783ZM12.2864 23.7238L17.4881 23.761L16.7983 24.7827H12.2864V23.7238Z" fill="#8ECCDF"/>
<path d="M18.961 22.1631L12.939 16.014L17.2644 11.8154L17.9542 12.5214L14.3746 15.9954L16.3135 17.9832L19.0915 15.2709L19.7813 15.9768L17.0034 18.6891L19.0356 20.7513L22.7457 17.1286L23.4356 17.8346L18.9796 22.1817L18.961 22.1631Z" fill="#8ECCDF"/>
<path d="M35.7327 5.25686C35.6106 4.92494 35.2414 4.75282 34.9244 4.88536C34.6073 5.01791 34.4204 5.37648 34.553 5.69354C34.6044 5.84154 34.7197 6.05704 35.0188 6.20192C35.318 6.34681 36.2421 6.55481 36.2421 6.55481C36.2421 6.55481 36.7893 5.78193 36.9342 5.48281C37.079 5.18369 36.9997 4.94899 36.9482 4.80099C36.8262 4.46907 36.457 4.29694 36.1399 4.42949C35.8229 4.56204 35.636 4.92061 35.7686 5.23766" fill="#8ECCDF"/>
<path d="M63.4325 93.2193C63.5375 93.5571 63.8973 93.7479 64.2208 93.6317C64.5442 93.5156 64.7492 93.167 64.633 92.8436C64.5892 92.6932 64.4851 92.472 64.1938 92.312C63.9024 92.152 62.9902 91.897 62.9902 91.897C62.9902 91.897 62.4041 92.6409 62.2441 92.9322C62.0842 93.2235 62.1514 93.462 62.1952 93.6124C62.3002 93.9502 62.66 94.1409 62.9834 94.0248C63.3069 93.9086 63.5119 93.5601 63.3957 93.2367" fill="#8ECCDF"/>
<path d="M54.7148 32.752C55.9456 37.9725 61.8531 48.4137 70.7144 48.4137C65.7915 50.6511 54.7148 57.3633 54.7148 66.3129" stroke="#8ECCDF" stroke-width="1.5"/>
<line x1="69.158" y1="49.1641" x2="29.7744" y2="49.1641" stroke="#8ECCDF" stroke-width="1.5"/>
</g>
<defs>
<clipPath id="clip0_16_9">
<rect width="99" height="99" fill="white"/>
</clipPath>
</defs>
</svg>
