<svg width="17" height="32" viewBox="0 0 17 32" fill="none" xmlns="http://www.w3.org/2000/svg">
<path d="M6.321 21.0379L6.12154 20.4811L5.60774 20.776L0.827355 23.5201C0.826094 23.5193 0.825037 23.5185 0.82425 23.5177L0.822593 23.4908L1.15743 0.679329L1.15774 0.679211L15.8577 17.9496C15.8602 17.9525 15.8609 17.9541 15.8609 17.9542L15.8611 17.9547C15.8611 17.955 15.8612 17.956 15.861 17.9575C15.8609 17.9584 15.8607 17.9595 15.8603 17.9607L10.4623 18.9807L9.88209 19.0903L10.0815 19.6471L13.642 29.5865C13.6428 29.5889 13.6429 29.5902 13.6429 29.5908C13.6429 29.591 13.6429 29.5913 13.6428 29.5915L13.6223 29.6013L9.88602 30.9831C9.88513 30.9826 9.88429 30.982 9.88366 30.9813C9.88322 30.9808 9.88236 30.9798 9.88143 30.9772L6.321 21.0379Z" fill="black" stroke="white"/>
</svg>
