<svg width="426" height="540" viewBox="0 0 426 540" fill="none" xmlns="http://www.w3.org/2000/svg">
<path d="M167.329 520.147C294.464 565.825 375.603 382.616 378.681 269.169C385.969 169.342 320.377 145.756 347.261 122.003C368.315 104.397 388.56 85.6272 409.29 67.5222C421.437 56.7256 410.91 37.1257 399.087 31.6444C390.827 27.658 381.758 29.8173 373.822 33.8037C365.724 37.7901 357.95 42.441 350.014 46.9257C348.071 47.9223 346.127 48.7528 344.022 48.5867C336.896 47.424 339.649 41.6105 340.459 36.4613C340.459 32.3088 337.22 29.1529 334.791 26.4953C327.503 18.1902 316.49 9.22079 305.801 16.8614C280.05 35.6308 254.137 54.4002 228.548 73.3357C208.627 91.1085 187.249 89.6136 163.118 91.9391C150.485 93.1018 147.084 81.3086 145.788 70.1798C133.966 20.8478 75.6617 64.2002 55.2553 84.6306C41.9749 98.0848 42.1369 115.691 54.6075 129.976C149.028 243.423 252.517 143.763 316.328 245.25C364.914 348.565 267.741 504.368 167.167 520.147M136.071 312.853C135.261 315.511 136.557 316.84 136.881 319.165C149.513 361.355 124.896 368.331 134.128 399.558C136.395 407.199 139.31 414.839 141.902 422.48C143.197 426.466 142.873 429.954 138.986 431.615C135.099 433.276 132.346 431.117 131.051 427.131C128.297 419.324 125.706 411.517 123.277 403.711C112.588 374.311 132.508 361.355 128.135 335.941C126.678 327.968 124.41 320.162 122.629 312.355C121.495 307.87 119.228 304.714 115.179 302.389C78.091 277.142 89.7518 221.664 102.384 184.457C85.7029 174.99 70.1552 163.695 56.389 149.908C50.8825 144.427 51.0445 144.593 46.0238 150.573C16.386 186.284 8.93598 228.972 13.4707 274.982C23.1881 357.202 61.8955 435.27 119.714 489.751C143.683 513.171 179.475 508.52 206.198 493.405C287.5 451.215 377.871 274.65 267.255 216.349C243.61 205.718 218.668 204.057 193.565 205.386C165.871 207.213 139.634 200.735 113.883 190.437C62.2194 332.952 180.771 281.294 237.941 350.724C245.067 356.87 264.016 398.894 248.63 401.053C244.419 401.219 242.476 397.897 242.476 393.911C241.18 366.172 221.26 345.907 198.586 335.609C199.558 346.904 195.023 356.039 191.622 366.172C188.059 374.809 175.75 366.504 182.066 358.863C187.249 352.385 189.678 332.287 181.581 328.135C166.681 322.819 151.619 318.002 136.233 312.853M353.254 29.4851C360.865 25.997 369.449 22.5089 377.709 17.858C399.735 5.73266 430.344 34.8003 425.486 60.546C424.514 66.0273 421.437 72.173 417.55 75.8272C398.439 93.6001 378.843 110.708 359.246 127.817C350.176 135.79 350.014 135.624 357.302 145.756C455.124 280.298 318.757 618.811 144.331 523.137C37.6021 456.531 -55.5223 252.559 39.3837 139.112C42.2989 135.956 42.1369 133.796 40.0315 130.308C13.1469 80.4781 77.7671 45.2647 114.531 35.6308C136.071 30.98 151.943 43.1054 157.125 66.3595C158.961 74.5538 163.712 78.3741 171.377 77.8205C178.18 77.3222 184.982 76.6578 191.784 76.4917C204.416 75.9934 213.81 68.3527 223.527 61.2104C248.792 42.6071 274.219 24.1699 299.484 5.73267C320.377 -9.88081 339.487 12.0445 352.93 29.4851" fill="#8ECCDF" fill-opacity="0.05"/>
</svg>
