<svg width="552" height="1079" viewBox="0 0 552 1079" fill="none" xmlns="http://www.w3.org/2000/svg">
<path d="M216.82 1039.38C381.559 1130.7 486.697 764.417 490.685 537.607C500.128 338.028 415.136 290.873 449.972 243.386C477.254 208.185 503.486 170.66 530.348 134.464C546.087 112.879 532.446 73.6935 517.127 62.7349C506.424 54.765 494.672 59.082 484.389 67.0519C473.896 75.0218 463.823 84.32 453.54 93.2861C451.022 95.2786 448.503 96.939 445.775 96.6069C436.541 94.2824 440.109 82.6596 441.158 72.3652C441.158 64.0632 436.961 57.7537 433.813 52.4405C424.37 35.8365 410.099 17.9043 396.249 33.1799C362.881 70.7048 329.304 108.23 296.146 146.087C270.334 181.619 242.633 178.63 211.364 183.279C194.995 185.604 190.588 162.026 188.909 139.777C173.589 41.1498 98.0405 127.822 71.5984 168.668C54.3901 195.566 54.5999 230.767 70.759 259.325C193.106 486.135 327.205 286.888 409.889 489.788C472.847 696.341 346.932 1007.83 216.61 1039.38M176.318 624.944C175.268 630.257 176.947 632.914 177.367 637.563C193.736 721.911 161.837 735.858 173.799 798.289C176.737 813.565 180.515 828.84 183.872 844.116C185.551 852.086 185.132 859.06 180.095 862.38C175.058 865.701 171.491 861.384 169.812 853.414C166.244 837.807 162.887 822.199 159.739 806.591C145.888 747.813 171.701 721.911 166.034 671.103C164.146 655.163 161.208 639.556 158.899 623.948C157.43 614.982 154.492 608.672 149.246 604.023C101.188 553.547 116.298 442.633 132.667 368.247C111.052 349.319 90.9053 326.737 73.0674 299.175C65.9322 288.216 66.1421 288.548 59.6365 300.503C21.2325 371.9 11.579 457.244 17.455 549.23C30.0465 713.609 80.2026 869.686 155.122 978.608C186.181 1025.43 232.559 1016.13 267.186 985.914C372.535 901.566 489.635 548.566 346.302 432.006C315.663 410.753 283.345 407.433 250.817 410.089C214.931 413.742 180.934 400.791 147.567 380.202C80.6223 665.126 234.238 561.849 308.318 700.658C317.552 712.945 342.105 796.961 322.169 801.278C316.712 801.61 314.194 794.968 314.194 786.998C312.515 731.541 286.703 691.028 257.323 670.439C258.582 693.02 252.706 711.284 248.299 731.541C243.682 748.809 227.733 732.206 235.917 716.93C242.633 703.979 245.78 663.797 235.288 655.495C215.981 644.869 196.464 635.239 176.527 624.944M457.737 58.4179C467.6 51.4442 478.723 44.4706 489.426 35.1724C517.966 10.9306 557.629 69.0444 551.334 120.517C550.074 131.475 546.087 143.762 541.051 151.068C516.287 186.6 490.895 220.804 465.502 255.008C453.75 270.948 453.54 270.616 462.983 290.873C589.738 559.857 413.037 1236.63 187.02 1045.36C48.7239 912.192 -71.9444 504.4 51.0323 277.59C54.8098 271.28 54.5999 266.963 51.8718 259.99C17.0354 160.366 100.769 89.9654 148.406 70.7048C176.318 61.4066 196.884 85.6483 203.599 132.139C205.977 148.522 212.133 156.16 222.066 155.053C230.881 154.057 239.695 152.728 248.509 152.396C264.878 151.4 277.049 136.124 289.641 121.845C322.379 84.6521 355.326 47.7914 388.064 10.9306C415.136 -20.2848 439.899 23.5496 457.317 58.4179" fill="#8ECCDF" fill-opacity="0.05"/>
</svg>
