<svg width="552" height="697" viewBox="0 0 552 697" fill="none" xmlns="http://www.w3.org/2000/svg">
<path d="M216.82 671.249C381.559 730.174 486.697 493.831 490.685 347.482C500.128 218.704 415.136 188.277 449.972 157.636C477.254 134.923 503.486 110.71 530.348 87.3541C546.087 73.4263 532.446 48.1421 517.127 41.0711C506.424 35.9285 494.672 38.7141 484.389 43.8566C473.896 48.9992 463.823 54.9988 453.54 60.7842C451.022 62.0699 448.503 63.1412 445.775 62.927C436.541 61.4271 440.109 53.9275 441.158 47.285C441.158 41.9282 436.961 37.857 433.813 34.4286C424.37 23.715 410.099 12.1442 396.249 22.0008C362.881 46.2137 329.304 70.4265 296.146 94.8537C270.334 117.781 242.633 115.852 211.364 118.852C194.995 120.352 190.588 105.139 188.909 90.7825C173.589 27.1433 98.0405 83.0687 71.5984 109.424C54.3901 126.78 54.5999 149.493 70.759 167.921C193.106 314.27 327.205 185.706 409.889 316.627C472.847 449.905 346.932 650.893 216.61 671.249M176.318 403.836C175.268 407.264 176.947 408.978 177.367 411.978C193.736 466.404 161.837 475.403 173.799 515.687C176.737 525.543 180.515 535.4 183.872 545.256C185.551 550.399 185.132 554.899 180.095 557.041C175.058 559.184 171.491 556.398 169.812 551.256C166.244 541.185 162.887 531.114 159.739 521.043C145.888 483.117 171.701 466.404 166.034 433.62C164.146 423.335 161.208 413.264 158.899 403.193C157.43 397.408 154.492 393.336 149.246 390.337C101.188 357.767 116.298 286.2 132.667 238.203C111.052 225.989 90.9053 211.418 73.0674 193.634C65.9322 186.563 66.1421 186.777 59.6365 194.491C21.2325 240.56 11.579 295.628 17.455 354.981C30.0465 461.047 80.2026 561.755 155.122 632.037C186.181 662.249 232.559 656.25 267.186 636.751C372.535 582.325 489.635 354.553 346.302 279.343C315.663 265.63 283.345 263.487 250.817 265.201C214.931 267.558 180.934 259.201 147.567 245.916C80.6223 429.763 234.238 363.124 308.318 452.69C317.552 460.618 342.105 514.829 322.169 517.615C316.712 517.829 314.194 513.544 314.194 508.401C312.515 472.618 286.703 446.476 257.323 433.191C258.582 447.762 252.706 459.547 248.299 472.618C243.682 483.76 227.733 473.046 235.917 463.19C242.633 454.833 245.78 428.906 235.288 423.549C215.981 416.692 196.464 410.478 176.527 403.836M457.737 38.2855C467.6 33.7858 478.723 29.2861 489.426 23.2864C517.966 7.64444 557.629 45.1423 551.334 78.3547C550.074 85.4257 546.087 93.3538 541.051 98.0678C516.287 120.995 490.895 143.065 465.502 165.135C453.75 175.42 453.54 175.206 462.983 188.277C589.738 361.838 413.037 798.527 187.02 675.106C48.7239 589.182 -71.9444 326.055 51.0323 179.706C54.8098 175.635 54.5999 172.849 51.8718 168.349C17.0354 104.067 100.769 58.6415 148.406 46.2137C176.318 40.214 196.884 55.8559 203.599 85.8542C205.977 96.425 212.133 101.353 222.066 100.639C230.881 99.9963 239.695 99.1392 248.509 98.9249C264.878 98.2821 277.049 88.4255 289.641 79.2117C322.379 55.2131 355.326 31.4288 388.064 7.64445C415.136 -12.4972 439.899 15.7868 457.317 38.2855" fill="#8ECCDF" fill-opacity="0.05"/>
</svg>
