<svg width="552" height="697" viewBox="0 0 552 697" fill="none" xmlns="http://www.w3.org/2000/svg">
<path d="M216.82 670.515C381.559 729.44 486.697 493.097 490.685 346.748C500.128 217.97 415.136 187.543 449.972 156.902C477.254 134.189 503.486 109.976 530.348 86.6205C546.087 72.6927 532.446 47.4085 517.127 40.3374C506.424 35.1949 494.672 37.9804 484.389 43.123C473.896 48.2656 463.823 54.2652 453.54 60.0506C451.022 61.3362 448.503 62.4076 445.775 62.1933C436.541 60.6934 440.109 53.1939 441.158 46.5514C441.158 41.1945 436.961 37.1233 433.813 33.695C424.37 22.9813 410.099 11.4106 396.249 21.2671C362.881 45.48 329.304 69.6929 296.146 94.12C270.334 117.047 242.633 115.119 211.364 118.119C194.995 119.619 190.588 104.405 188.909 90.0488C173.589 26.4097 98.0405 82.335 71.5984 108.691C54.3901 126.047 54.5999 148.76 70.759 167.187C193.106 313.536 327.205 184.972 409.889 315.893C472.847 449.171 346.932 650.159 216.61 670.515M176.318 403.102C175.268 406.531 176.947 408.245 177.367 411.245C193.736 465.67 161.837 474.669 173.799 514.953C176.737 524.809 180.515 534.666 183.872 544.523C185.551 549.665 185.132 554.165 180.095 556.308C175.058 558.45 171.491 555.665 169.812 550.522C166.244 540.451 162.887 530.381 159.739 520.31C145.888 482.383 171.701 465.67 166.034 432.886C164.146 422.601 161.208 412.53 158.899 402.459C157.43 396.674 154.492 392.603 149.246 389.603C101.188 357.033 116.298 285.466 132.667 237.469C111.052 225.255 90.9053 210.685 73.0674 192.9C65.9322 185.829 66.1421 186.043 59.6365 193.757C21.2325 239.826 11.579 294.894 17.455 354.248C30.0465 460.313 80.2026 561.022 155.122 631.303C186.181 661.516 232.559 655.516 267.186 636.017C372.535 581.592 489.635 353.819 346.302 278.609C315.663 264.896 283.345 262.753 250.817 264.467C214.931 266.824 180.934 258.468 147.567 245.183C80.6223 429.029 234.238 362.39 308.318 451.956C317.552 459.885 342.105 514.096 322.169 516.881C316.712 517.096 314.194 512.81 314.194 507.668C312.515 471.884 286.703 445.743 257.323 432.458C258.582 447.028 252.706 458.813 248.299 471.884C243.682 483.026 227.733 472.312 235.917 462.456C242.633 454.099 245.78 428.172 235.288 422.815C215.981 415.959 196.464 409.745 176.527 403.102M457.737 37.5519C467.6 33.0522 478.723 28.5524 489.426 22.5528C517.966 6.9108 557.629 44.4086 551.334 77.621C550.074 84.692 546.087 92.6201 541.051 97.3341C516.287 120.261 490.895 142.332 465.502 164.402C453.75 174.687 453.54 174.473 462.983 187.543C589.738 361.105 413.037 797.794 187.02 674.372C48.7239 588.449 -71.9444 325.321 51.0323 178.972C54.8098 174.901 54.5999 172.116 51.8718 167.616C17.0354 103.334 100.769 57.9079 148.406 45.48C176.318 39.4804 196.884 55.1223 203.599 85.1206C205.977 95.6914 212.133 100.62 222.066 99.9054C230.881 99.2626 239.695 98.4055 248.509 98.1913C264.878 97.5484 277.049 87.6919 289.641 78.4781C322.379 54.4795 355.326 30.6952 388.064 6.91081C415.136 -13.2309 439.899 15.0532 457.317 37.5519" fill="#8ECCDF" fill-opacity="0.05"/>
</svg>
