<svg width="32" height="61" viewBox="0 0 32 61" fill="none" xmlns="http://www.w3.org/2000/svg">
<path d="M12.3116 58.593C21.5731 63.7346 27.4839 43.112 27.7081 30.3421C28.239 19.1053 23.4608 16.4504 25.4193 13.7768C26.953 11.7949 28.4278 9.68216 29.9379 7.64421C30.8228 6.42892 30.0559 4.2227 29.1946 3.60571C28.5929 3.15698 27.9323 3.40004 27.3541 3.84876C26.7642 4.29749 26.1979 4.821 25.6198 5.32581C25.4782 5.43799 25.3367 5.53148 25.1833 5.51278C24.6642 5.3819 24.8647 4.72752 24.9237 4.14791C24.9237 3.6805 24.6878 3.32526 24.5108 3.02611C23.9799 2.09127 23.1776 1.08164 22.3989 1.94169C20.5231 4.05443 18.6354 6.16717 16.7713 8.2986C15.3201 10.2992 13.7627 10.1309 12.0048 10.3926C11.0846 10.5235 10.8368 9.19605 10.7424 7.94336C9.88117 2.39041 5.63385 7.27028 4.14729 9.56998C3.17985 11.0844 3.19165 13.0663 4.1001 14.6742C10.9784 27.4441 18.5174 16.226 23.1658 27.6498C26.7052 39.2792 19.6264 56.8168 12.2998 58.593M10.0345 35.2594C9.97555 35.5585 10.0699 35.7081 10.0935 35.9699C11.0138 40.7188 9.22047 41.5041 9.89296 45.0191C10.0581 45.8792 10.2705 46.7392 10.4593 47.5993C10.5537 48.048 10.5301 48.4406 10.2469 48.6276C9.96375 48.8145 9.76319 48.5715 9.6688 48.1228C9.46823 47.244 9.27946 46.3653 9.10249 45.4865C8.32382 42.1772 9.77498 40.7188 9.45644 37.8582C9.35025 36.9608 9.18508 36.082 9.0553 35.2033C8.97271 34.6985 8.80754 34.3432 8.51259 34.0815C5.81083 31.2396 6.66029 24.9948 7.58054 20.8068C6.36533 19.741 5.23272 18.4697 4.22988 16.9178C3.82874 16.3008 3.84054 16.3195 3.4748 16.9926C1.31575 21.0124 0.773036 25.8175 1.10338 30.9965C1.81127 40.2514 4.63101 49.0389 8.84293 55.1715C10.5891 57.8077 13.1964 57.2842 15.1431 55.5828C21.0658 50.8338 27.6491 30.9591 19.591 24.3965C17.8685 23.1999 16.0516 23.013 14.2229 23.1626C12.2054 23.3682 10.2941 22.639 8.4182 21.4798C4.65461 37.5217 13.2908 31.707 17.4555 39.5222C17.9747 40.214 19.355 44.9443 18.2342 45.1874C17.9275 45.2061 17.7859 44.8321 17.7859 44.3834C17.6915 41.261 16.2403 38.98 14.5886 37.8208C14.6594 39.0922 14.329 40.1205 14.0813 41.261C13.8217 42.2333 12.9251 41.2984 13.3852 40.4384C13.7627 39.7092 13.9397 37.4469 13.3498 36.9795C12.2644 36.3812 11.1672 35.839 10.0463 35.2594M25.8558 3.36265C26.4103 2.97002 27.0356 2.57738 27.6373 2.05387C29.2418 0.689007 31.4717 3.96095 31.1177 6.85895C31.0469 7.47594 30.8228 8.16772 30.5396 8.57905C29.1475 10.5796 27.7199 12.5054 26.2923 14.4311C25.6316 15.3286 25.6198 15.3099 26.1507 16.4504C33.2768 31.5948 23.3428 69.6989 10.6362 58.9295C2.8613 51.4321 -3.9226 28.4724 2.99108 15.7025C3.20345 15.3473 3.19165 15.1042 3.03827 14.7116C1.07979 9.10256 5.78723 5.13884 8.46539 4.05443C10.0345 3.53092 11.1908 4.89579 11.5683 7.51334C11.702 8.43571 12.0481 8.86574 12.6065 8.80342C13.102 8.74732 13.5976 8.67254 14.0931 8.65384C15.0133 8.59775 15.6976 7.7377 16.4055 6.93374C18.246 4.8397 20.0983 2.76435 21.9388 0.689008C23.4608 -1.06849 24.8529 1.39949 25.8322 3.36265" fill="#8ECCDF"/>
</svg>
