<svg width="99" height="99" viewBox="0 0 99 99" fill="none" xmlns="http://www.w3.org/2000/svg">
<g clip-path="url(#clip0_10_9)">
<path d="M54.9068 0.315842C55.7831 0.40873 56.4543 0.705971 56.939 1.20757C57.4238 1.70916 57.6288 2.3408 57.5543 3.10248C57.4797 3.86416 57.1441 4.44007 56.5848 4.81162C56.0255 5.18317 55.2797 5.33179 54.4034 5.2389L54.3102 5.29464L52.2034 5.09028L51.8492 8.6386L50.8051 8.52714L51.6627 -0.0185547L54.9068 0.297264V0.315842ZM54.4966 4.34718C55.1119 4.40291 55.578 4.3286 55.9136 4.10567C56.2305 3.88274 56.417 3.51119 56.4729 3.00959C56.5288 2.508 56.417 2.09929 56.1373 1.82063C55.8577 1.54196 55.4288 1.35619 54.8136 1.30045L52.6136 1.07752L52.3153 4.12425L54.5153 4.34718H54.4966ZM55.0746 4.60727L57.4797 9.19593L56.2492 9.06589L54.161 5.07171L55.0932 4.58869L55.0746 4.60727Z" fill="#8ECCDF"/>
<path d="M59.5865 9.75324L62.2339 1.5791L67.9763 3.43686L67.678 4.36574L62.9237 2.84238L62.0661 5.4804L65.7576 6.66936L65.4593 7.59824L61.7492 6.40928L60.8542 9.15876L65.7949 10.7564L65.4966 11.6853L59.5678 9.77182L59.5865 9.75324Z" fill="#8ECCDF"/>
<path d="M70.3813 14.4162C69.6729 14.0075 69.1508 13.4873 68.8339 12.8743C68.4983 12.2612 68.3678 11.5924 68.4237 10.8679C68.4796 10.1434 68.7407 9.3817 69.2068 8.58286C69.6729 7.78403 70.2135 7.20812 70.8474 6.81799C71.4813 6.42786 72.1525 6.22351 72.861 6.22351C73.5695 6.22351 74.278 6.42786 74.9678 6.83657C75.6949 7.26386 76.2169 7.74687 76.5152 8.3042C76.8135 8.84295 76.9441 9.49317 76.8881 10.2363L75.8068 10.1991C75.9 9.67894 75.8068 9.19593 75.6017 8.76864C75.3966 8.34136 75.0051 7.9698 74.483 7.67256C73.9796 7.37532 73.4576 7.24528 72.9356 7.24528C72.4135 7.24528 71.9102 7.41248 71.4254 7.7283C70.9407 8.04411 70.5119 8.50856 70.1576 9.14019C69.7847 9.75325 69.5796 10.3477 69.5051 10.9051C69.4305 11.4624 69.5051 11.964 69.7661 12.4284C70.0085 12.8929 70.4 13.283 70.9407 13.5988C71.2576 13.7846 71.5559 13.9146 71.8729 13.9889C72.1898 14.0633 72.4881 14.0818 72.7864 14.0447C73.0847 14.0075 73.3457 13.8961 73.6068 13.7289C73.8678 13.5617 74.0729 13.3016 74.278 12.9858L74.4271 12.7257L72.0593 11.3509L72.5627 10.5149L75.7508 12.3727L73.5508 16.1068L72.8424 15.6981L73.6068 14.2862L73.7746 14.4348C73.3085 14.7878 72.7864 14.955 72.2085 14.9736C71.6305 14.9921 71.0339 14.8064 70.4186 14.4348L70.3813 14.4162Z" fill="#8ECCDF"/>
<path d="M81.9593 12.0011L76.4034 18.559L75.6017 17.8902L81.1576 11.3323L81.9593 12.0011Z" fill="#8ECCDF"/>
<path d="M87.1983 17.0356C87.7017 17.6115 88 18.206 88.1305 18.8191C88.261 19.4322 88.2051 20.0824 88 20.7326L86.9187 20.5097C87.1238 19.8966 87.1797 19.3764 87.1051 18.912C87.0119 18.4475 86.7882 18.0203 86.3966 17.5744C86.0983 17.2214 85.8 16.9799 85.5017 16.8499C85.2034 16.7012 84.9238 16.6641 84.6814 16.6827C84.439 16.7012 84.1966 16.8313 83.9916 16.9985C83.7678 17.2028 83.6187 17.4444 83.5814 17.7416C83.5255 18.0388 83.6373 18.4475 83.917 18.9677L84.8305 20.6397C85.2407 21.3828 85.4085 21.9959 85.3339 22.4789C85.2594 22.9619 85.0356 23.3892 84.6068 23.7422C84.2339 24.058 83.8238 24.2437 83.3577 24.2809C82.8916 24.3181 82.4255 24.2252 81.9407 23.9837C81.456 23.7422 80.9899 23.3706 80.561 22.869C80.1509 22.4046 79.8526 21.9216 79.6661 21.4571C79.4797 20.9927 79.3865 20.5282 79.3865 20.0824C79.3865 19.6365 79.4424 19.2278 79.5729 18.8191L80.7288 19.0234C80.5797 19.3578 80.5051 19.7108 80.4865 20.0824C80.4678 20.4539 80.5238 20.8069 80.6543 21.1784C80.7848 21.55 81.0085 21.9216 81.3255 22.2745C81.6238 22.6089 81.9034 22.869 82.2017 23.0362C82.5 23.2034 82.7797 23.2963 83.0594 23.2777C83.339 23.2591 83.5814 23.1662 83.8238 22.9619C84.0288 22.7761 84.1593 22.5532 84.2153 22.2745C84.2712 21.9959 84.1593 21.6243 83.917 21.1784L82.9475 19.3578C82.6865 18.8748 82.5373 18.4475 82.4814 18.0574C82.4255 17.6673 82.4814 17.3329 82.5932 17.0356C82.7051 16.7384 82.9102 16.4783 83.1712 16.2554C83.5255 15.9581 83.917 15.7724 84.3831 15.7166C84.8492 15.6609 85.3153 15.7166 85.8187 15.9396C86.3034 16.1439 86.7695 16.4969 87.217 16.9985L87.1983 17.0356Z" fill="#8ECCDF"/>
<path d="M94.4135 27.9779L93.5559 28.4609L92.0644 25.86L85.4457 29.6499L84.9237 28.7396L91.5423 24.9497L90.0508 22.3489L90.9085 21.8658L94.4135 27.9593V27.9779Z" fill="#8ECCDF"/>
<path d="M87.7204 34.2014L95.9051 31.5448L97.7882 37.2667L96.856 37.5639L95.3085 32.8267L92.661 33.6812L93.8729 37.3596L92.9407 37.6568L91.7288 33.9785L88.9695 34.8702L90.5729 39.7933L89.6407 40.0905L87.7017 34.1828L87.7204 34.2014Z" fill="#8ECCDF"/>
<path d="M98.9814 44.6977C99.0746 45.5709 98.9254 46.2954 98.5153 46.8713C98.1237 47.4472 97.5458 47.763 96.7627 47.8559C95.9983 47.9302 95.3644 47.7259 94.8797 47.2428C94.3949 46.7598 94.1153 46.0725 94.022 45.1993L93.9475 45.1064L93.7237 43.0071L90.1627 43.3787L90.0508 42.3384L98.6271 41.4652L98.9627 44.6977H98.9814ZM94.8051 45.7195L90.778 48.9891L90.6475 47.763L94.1525 44.9206L94.8051 45.7381V45.7195ZM94.9542 45.1064C95.0102 45.7195 95.1966 46.1653 95.4763 46.4254C95.7559 46.7041 96.1661 46.797 96.6695 46.7598C97.1729 46.7041 97.5458 46.5183 97.7695 46.2025C97.9932 45.8867 98.0678 45.4037 98.0119 44.7906L97.7881 42.5984L94.7305 42.9143L94.9542 45.1064Z" fill="#8ECCDF"/>
<path d="M96.9492 64.6686L88.5966 62.6065L88.839 61.6033L97.1915 63.6654L96.9492 64.6686ZM98.3288 59.1324L89.9763 57.0703L90.2187 56.0671L98.5712 58.1293L98.3288 59.1324ZM93.4441 63.2195L92.4932 62.978L93.8542 57.5162L94.8051 57.7577L93.4441 63.2195Z" fill="#8ECCDF"/>
<path d="M87.4966 65.3745L95.1966 69.2387L92.4746 74.6262L91.5983 74.1803L93.8356 69.7217L91.3559 68.477L89.6034 71.9324L88.7271 71.4866L90.4796 68.0311L87.8881 66.7307L85.5576 71.3565L84.6813 70.9107L87.4779 65.356L87.4966 65.3745Z" fill="#8ECCDF"/>
<path d="M84.3458 78.5461L79.1814 78.0445L79.9644 77.0785L84.4577 77.5058L84.3644 78.5461H84.3458ZM88.0373 80.7568C87.478 81.4442 86.8627 81.8529 86.1916 81.9644C85.5017 82.0944 84.8678 81.9086 84.2526 81.4256C83.656 80.9426 83.339 80.3667 83.3577 79.6793C83.3577 78.992 83.6373 78.3046 84.178 77.6358V77.5243L85.5017 75.8895L82.7238 73.6602L83.3763 72.8428L90.0882 78.2303L88.0373 80.7568ZM84.8865 78.2117C84.495 78.6947 84.3085 79.122 84.3272 79.5121C84.3272 79.9023 84.5509 80.2552 84.9424 80.5896C85.3339 80.9055 85.7441 81.0355 86.117 80.9612C86.5085 80.8869 86.9 80.6082 87.2729 80.1252L88.6526 78.4161L86.2475 76.484L84.8678 78.1931L84.8865 78.2117Z" fill="#8ECCDF"/>
<path d="M77.522 79.5492L82.9474 86.2186L78.2491 90.0084L77.6339 89.2467L81.5119 86.1071L79.7593 83.9521L76.739 86.3858L76.1237 85.6241L79.1441 83.1904L77.3169 80.9426L73.2898 84.1936L72.6746 83.432L77.522 79.5121V79.5492Z" fill="#8ECCDF"/>
<path d="M48.2695 94.69L45.4915 90.3057H46.722L49.1458 94.1141L48.2695 94.6714V94.69ZM48.7915 98.9442C47.9152 98.9442 47.2068 98.6842 46.6847 98.2383C46.1627 97.7924 45.9017 97.1608 45.9203 96.3991C45.9203 95.6189 46.2186 95.0244 46.7593 94.6157C47.3 94.1884 48.0085 93.984 48.8847 94.0026L48.978 93.9469L51.0847 93.984L51.1407 90.4171H52.1847L52.0356 99.0186L48.7729 98.9628L48.7915 98.9442ZM48.8661 94.8943C48.2508 94.8943 47.7847 95.0058 47.4864 95.2473C47.1881 95.4888 47.0203 95.8789 47.0203 96.3991C47.0203 96.9193 47.1508 97.2908 47.4491 97.5509C47.7475 97.811 48.1949 97.9411 48.8288 97.9596L51.0288 97.9968L51.0847 94.9315L48.8847 94.8943H48.8661Z" fill="#8ECCDF"/>
<path d="M43.3102 89.9898L41.4458 98.3683L35.5543 97.0679L35.7593 96.1204L40.6441 97.1979L41.2407 94.4856L37.4373 93.6496L37.6424 92.7022L41.4458 93.5382L42.0797 90.7144L37.0085 89.5811L37.2136 88.6337L43.3102 89.9898Z" fill="#8ECCDF"/>
<path d="M32.1051 86.3298C32.8508 86.6828 33.4101 87.1473 33.8017 87.7232C34.1932 88.2991 34.3796 88.9493 34.3983 89.6924C34.4169 90.4355 34.2305 91.1972 33.839 92.0332C33.4474 92.8506 32.9627 93.5008 32.3661 93.9467C31.7695 94.3925 31.1169 94.6526 30.4085 94.7269C29.7 94.8012 28.9729 94.6526 28.2457 94.3182C27.4813 93.9652 26.922 93.5194 26.5678 92.9992C26.2135 92.479 26.0457 91.8474 26.0271 91.1043L27.1085 91.03C27.0712 91.5501 27.183 92.0332 27.444 92.4233C27.7051 92.832 28.1152 93.1664 28.6559 93.4079C29.1779 93.6494 29.7 93.7423 30.222 93.6866C30.744 93.6308 31.2288 93.4265 31.6763 93.0549C32.1237 92.6834 32.5152 92.2004 32.8135 91.5316C33.1118 90.8814 33.2796 90.2683 33.2983 89.711C33.3169 89.1536 33.1864 88.652 32.9068 88.2248C32.6271 87.7975 32.1983 87.4445 31.6203 87.1658C31.3034 87.0172 30.9678 86.9243 30.6508 86.8686C30.3339 86.8129 30.0356 86.8314 29.7373 86.9057C29.4576 86.9801 29.1966 87.1101 28.9542 87.2959C28.7118 87.5002 28.5254 87.7603 28.3576 88.0947L28.2271 88.3734L30.7068 89.5252L30.2966 90.4169L26.9593 88.8564L28.8051 84.9365L29.5508 85.2895L28.9169 86.7571L28.7305 86.6271C29.1593 86.237 29.6627 86.014 30.2407 85.9583C30.8 85.9026 31.4152 86.014 32.0678 86.3298H32.1051Z" fill="#8ECCDF"/>
<path d="M20.8441 89.8226L25.7661 82.7817L26.6237 83.3762L21.7017 90.4171L20.8441 89.8226Z" fill="#8ECCDF"/>
<path d="M15.139 85.2898C14.5984 84.7696 14.2255 84.2123 14.039 83.5992C13.8526 83.0048 13.8339 82.3545 14.0017 81.6672L15.1017 81.7786C14.9526 82.4103 14.9339 82.9304 15.0645 83.3763C15.195 83.8222 15.4746 84.2495 15.8848 84.6396C16.2204 84.9554 16.5373 85.1783 16.8543 85.2898C17.1526 85.4013 17.4322 85.4384 17.6933 85.3641C17.9356 85.3084 18.1594 85.1783 18.3458 84.9926C18.5509 84.7696 18.6814 84.5095 18.7 84.2123C18.7187 83.9151 18.5695 83.5249 18.2526 83.0233L17.1899 81.4442C16.7238 80.7383 16.5 80.1438 16.5187 79.6608C16.5373 79.1778 16.7424 78.7319 17.1153 78.3418C17.4509 77.9888 17.8424 77.7659 18.3085 77.6916C18.7746 77.6173 19.2407 77.6544 19.7441 77.8588C20.2475 78.0445 20.7322 78.3789 21.217 78.8434C21.6645 79.2707 22 79.7165 22.2238 80.1624C22.4475 80.6082 22.578 81.0541 22.6339 81.5C22.6712 81.9458 22.6526 82.3545 22.5594 82.7632L21.3848 82.6704C21.4967 82.3174 21.5339 81.9644 21.5339 81.5929C21.5339 81.2399 21.4221 80.8683 21.2543 80.5154C21.0865 80.1624 20.8255 79.8094 20.4712 79.4936C20.1543 79.1778 19.8373 78.9548 19.5204 78.8062C19.2034 78.6576 18.9238 78.6019 18.6441 78.639C18.3645 78.6762 18.1221 78.8062 17.917 79.0106C17.7306 79.2149 17.6187 79.4564 17.6 79.7351C17.5814 80.0138 17.7119 80.3853 17.9916 80.8126L19.1289 82.5403C19.4272 82.9862 19.6136 83.4135 19.7068 83.785C19.8 84.1566 19.7814 84.5095 19.7068 84.8068C19.6136 85.1226 19.4458 85.3827 19.2034 85.6428C18.8865 85.9772 18.495 86.1815 18.0475 86.293C17.6 86.4045 17.1153 86.3673 16.5933 86.2001C16.0899 86.0329 15.5865 85.7171 15.1017 85.2712L15.139 85.2898Z" fill="#8ECCDF"/>
<path d="M6.91699 75.0164L7.71869 74.459L9.45259 76.9113L15.6983 72.5455L16.295 73.4001L10.0492 77.7658L11.7831 80.2181L10.9814 80.7754L6.93564 75.0349L6.91699 75.0164Z" fill="#8ECCDF"/>
<path d="M13.0322 68.2727L5.12713 71.6909L2.72205 66.1734L3.61696 65.7833L5.61188 70.3533L8.16611 69.2573L6.61866 65.7089L7.51357 65.3188L9.06103 68.8671L11.7271 67.7153L9.65764 62.9595L10.5526 62.5693L13.0322 68.2727Z" fill="#8ECCDF"/>
<path d="M0.820378 58.7981C0.652582 57.9435 0.727158 57.2004 1.0814 56.6059C1.41699 55.9928 1.97631 55.6213 2.74072 55.4727C3.50512 55.324 4.13902 55.4727 4.66106 55.8999C5.18309 56.3272 5.53733 56.996 5.70512 57.8506L5.7797 57.9249L6.18987 59.987L9.69495 59.2996L9.90004 60.3214L1.45428 61.9748L0.820378 58.7795V58.7981ZM4.81021 58.0364C4.69834 57.4419 4.47462 57.0146 4.15767 56.7731C3.84072 56.5316 3.44919 56.4573 2.9458 56.5502C2.44241 56.6431 2.08818 56.866 1.90173 57.219C1.71529 57.5534 1.67801 58.0364 1.78987 58.6309L2.21868 60.7859L5.23902 60.1914L4.81021 58.0364ZM4.90343 57.4047L8.6136 53.7821L8.85597 54.9896L5.63055 58.1478L4.90343 57.4047Z" fill="#8ECCDF"/>
<path d="M0.149153 44.4376L8.66949 45.7009L8.52034 46.7226L0 45.4594L0.149153 44.4376ZM0.988136 38.8086L9.50847 40.0719L9.35932 41.0936L0.838983 39.8304L0.988136 38.8086ZM4.62373 39.9232L5.59322 40.0719L4.75424 45.6451L3.78475 45.4965L4.62373 39.9232Z" fill="#8ECCDF"/>
<path d="M10.3661 37.1924L2.34912 34.0714L4.54912 28.4609L5.46268 28.8139L3.63556 33.4583L6.22709 34.4615L7.64404 30.8574L8.5576 31.2104L7.14065 34.8145L9.84404 35.8734L11.7271 31.0618L12.6406 31.4148L10.3661 37.211V37.1924Z" fill="#8ECCDF"/>
<path d="M8.40845 21.8658C8.8932 21.1413 9.47116 20.6768 10.1423 20.4911C10.8135 20.3053 11.4661 20.4168 12.1186 20.844C12.7712 21.2713 13.1254 21.8287 13.1813 22.516C13.2373 23.2034 13.0322 23.9093 12.5474 24.6339V24.7453L11.3729 26.4916L14.3559 28.4609L13.7779 29.334L6.59998 24.5781L8.40845 21.8658ZM11.783 24.1137C12.1186 23.5935 12.2678 23.1477 12.2305 22.7575C12.1746 22.3674 11.9508 22.033 11.522 21.7543C11.0932 21.4757 10.683 21.3828 10.3101 21.4943C9.93726 21.6057 9.56438 21.903 9.22879 22.4231L8.01693 24.2623L10.5898 25.9529L11.8017 24.1137H11.783ZM12.2864 23.7236L17.4881 23.7607L16.7983 24.7825H12.2864V23.7236Z" fill="#8ECCDF"/>
<path d="M18.961 22.163L12.939 16.0138L17.2644 11.8153L17.9542 12.5213L14.3746 15.9953L16.3135 17.9831L19.0915 15.2707L19.7813 15.9767L17.0034 18.689L19.0356 20.7511L22.7457 17.1285L23.4356 17.8344L18.9796 22.1816L18.961 22.163Z" fill="#8ECCDF"/>
<path d="M35.7327 5.25699C35.6106 4.92507 35.2414 4.75294 34.9244 4.88549C34.6073 5.01803 34.4204 5.3766 34.553 5.69366C34.6044 5.84166 34.7197 6.05716 35.0188 6.20205C35.318 6.34693 36.2421 6.55494 36.2421 6.55494C36.2421 6.55494 36.7893 5.78205 36.9342 5.48293C37.079 5.18381 36.9997 4.94911 36.9482 4.80111C36.8262 4.46919 36.457 4.29706 36.1399 4.42961C35.8229 4.56216 35.636 4.92073 35.7686 5.23779" fill="#8ECCDF"/>
<path d="M63.4325 93.2192C63.5375 93.557 63.8973 93.7477 64.2208 93.6316C64.5442 93.5154 64.7492 93.1669 64.633 92.8435C64.5892 92.693 64.4851 92.4719 64.1938 92.3119C63.9024 92.1519 62.9902 91.8969 62.9902 91.8969C62.9902 91.8969 62.4041 92.6408 62.2441 92.9321C62.0842 93.2234 62.1514 93.4619 62.1952 93.6123C62.3002 93.95 62.66 94.1408 62.9834 94.0247C63.3069 93.9085 63.5119 93.56 63.3957 93.2366" fill="#8ECCDF"/>
<path d="M54.7148 32.7518C55.9456 37.9724 61.8531 48.4136 70.7144 48.4136C65.7915 50.651 54.7148 57.3632 54.7148 66.3128" stroke="#8ECCDF" stroke-width="1.5"/>
<line x1="69.158" y1="49.1638" x2="29.7744" y2="49.1638" stroke="#8ECCDF" stroke-width="1.5"/>
</g>
<defs>
<clipPath id="clip0_10_9">
<rect width="99" height="99" fill="white"/>
</clipPath>
</defs>
</svg>
