<svg width="40px" height="40px" viewBox="0 0 40 40" version="1.1" xmlns="http://www.w3.org/2000/svg" xmlns:xlink="http://www.w3.org/1999/xlink">
    <g id="icon-linkedin" fill="#000000" fill-rule="nonzero">
        <path d="M18.4767758,26.999589 C18.447152,26.9413494 18.4533866,26.8787231 18.4533866,26.8167501 C18.4533866,23.8171286 18.4533866,20.8171243 18.4533866,17.8174748 C18.4533866,17.7663938 18.4533866,17.7153127 18.4533866,17.6514545 L21.2327242,17.6514545 L21.2327242,18.8812162 C21.3119264,18.8946095 21.3209703,18.8438365 21.3403089,18.812374 C21.8248926,18.0355188 22.5402228,17.6097161 23.4258481,17.4611303 C24.0794574,17.3514923 24.7280267,17.4035067 25.3651161,17.5879135 C26.3117903,17.8620225 26.8933467,18.5024439 27.1951849,19.4216503 C27.4109702,20.0798329 27.4848898,20.7613673 27.4895564,21.4478951 C27.5011297,23.2486387 27.4973964,25.049681 27.4999548,26.8503499 C27.4999548,26.9024296 27.502343,26.9544159 27.4686499,26.9989357 L24.6373073,26.9989357 C24.577761,26.9385494 24.5995075,26.8619232 24.5992275,26.7918303 C24.5982942,25.2449331 24.5992275,23.6981293 24.5976409,22.1512321 C24.5973609,21.7715358 24.5708544,21.3943128 24.4769616,21.0239591 C24.3569357,20.5492407 24.0993373,20.1913469 23.6195135,20.0393358 C23.3191687,19.9440244 23.004824,19.9452657 22.6948939,19.9975974 C22.2034502,20.0804489 21.8339365,20.3321393 21.6137832,20.7922045 C21.4251204,21.1862461 21.3655647,21.6073728 21.3630727,22.0338195 C21.3534035,23.6171165 21.3565208,25.2001334 21.3537115,26.7834303 C21.3537115,26.8553899 21.3437342,26.9273494 21.3387502,26.999589 L18.4761505,26.999589 L18.4767758,26.999589 Z M13.7471028,26.999869 C13.7418015,26.938176 13.732135,26.8765764 13.732135,26.8151635 C13.7315115,23.8161952 13.7315115,20.8171243 13.7315115,17.8181001 L13.7315115,17.6520798 L16.6090753,17.6520798 C16.6480604,17.7062781 16.6321565,17.7651524 16.6324645,17.8199761 C16.6333978,20.8190003 16.6330898,23.8180619 16.6330898,26.8170301 C16.6330898,26.8790031 16.6393244,26.9416294 16.6097006,26.999869 L13.7471028,26.999869 Z M15.1807667,16.3613353 C14.2505798,16.3622677 13.4984457,15.609091 13.5000024,14.6780407 C13.501564,13.7519838 14.2452785,13.0047216 15.1704815,13.0000245 C16.1025397,12.9950654 16.8546711,13.7423332 16.8574883,14.6755488 C16.8602804,15.6087737 16.1131423,16.3600931 15.1807667,16.3613353 Z" id="icon"></path>
        <path d="M20,0 C31.045695,0 40,8.954305 40,20 C40,31.045695 31.045695,40 20,40 C8.954305,40 0,31.045695 0,20 C0,8.954305 8.954305,0 20,0 Z M20,0.7 C9.34090433,0.7 0.7,9.34090433 0.7,20 C0.7,30.6590957 9.34090433,39.3 20,39.3 C30.6590957,39.3 39.3,30.6590957 39.3,20 C39.3,9.34090433 30.6590957,0.7 20,0.7 Z" id="circle"></path>
    </g>
</svg>
