<svg width="40px" height="40px" viewBox="0 0 40 40" version="1.1" xmlns="http://www.w3.org/2000/svg" xmlns:xlink="http://www.w3.org/1999/xlink">
  <g id="icon-phone" fill="#000000">
      <path d="M24.2014427,22.3166832 C24.9982628,22.7594965 25.7955704,23.2023098 26.5923906,23.645123 C26.9354287,23.8354921 27.0858227,24.2397116 26.9507849,24.608181 C26.2651962,26.4810779 24.2573428,27.4696484 22.3681145,26.7800785 C18.4996084,25.367951 15.6319416,22.5003898 14.2199376,18.6318919 C13.5304035,16.7426473 14.5189796,14.734776 16.3918417,14.0491984 C16.760376,13.9141951 17.1644817,14.0646032 17.3553546,14.4076101 C17.7977372,15.2044684 18.2405749,16.0017273 18.6833962,16.7985718 C18.8909741,17.1723468 18.8421346,17.6160782 18.5580923,17.9353913 C18.1860479,18.3540245 17.8140035,18.7726577 17.4419672,19.190836 C18.2361548,21.1249306 19.8750758,22.7638028 21.8091785,23.5580229 C22.2273893,23.1859785 22.64599,22.8139341 23.0645907,22.4418897 C23.38431,22.1578392 23.8276108,22.109016 24.2014427,22.316602 L24.2014427,22.3166832 Z" id="icon"></path>
      <path d="M20,0 C31.045695,0 40,8.954305 40,20 C40,31.045695 31.045695,40 20,40 C8.954305,40 0,31.045695 0,20 C0,8.954305 8.954305,0 20,0 Z M20,0.7 C9.34090433,0.7 0.7,9.34090433 0.7,20 C0.7,30.6590957 9.34090433,39.3 20,39.3 C30.6590957,39.3 39.3,30.6590957 39.3,20 C39.3,9.34090433 30.6590957,0.7 20,0.7 Z" id="circle" fill-rule="nonzero"></path>
  </g>
</svg>
