<svg width="1547" height="112" viewBox="0 0 1547 112" fill="none" xmlns="http://www.w3.org/2000/svg">
<path d="M1544 1L1514.76 111L1507.45 69.4768H1492.83L1479.67 48.351L1472.36 84.0464L1462.12 58.5497L1454.81 69.4768H1343.69L1324.68 30.1391L1310.06 102.258L1291.05 48.351L1282.28 69.4768H1125.1L1118.16 56.3642L1108.29 69.4768H1099.88L1092.2 87.5066L1071 1L1045.05 111L1033.72 69.4768H1019.46L1009.59 48.351L1001.92 85.3212L992.415 59.8245L987.297 69.4768H870.328L853.879 27.5894L837.064 102.258L818.788 48.351L807.091 71.298H772" stroke="#107B9C" stroke-opacity="0.2" stroke-width="5"/>
<path d="M0 69.4768H51.9164L65.0755 48.351L72.3861 84.0464L82.6209 58.5497L89.9315 69.4768H201.053L220.06 30.1391L234.682 102.258L253.689 48.351L262.462 69.4768H419.64L426.585 56.3642L436.454 69.4768H444.861L452.538 87.5066L473.738 1L499.691 111L511.022 69.4768H525.278L535.147 48.351L542.824 85.3212L552.327 59.8245L557.445 69.4768H674.415L690.863 27.5894L707.678 102.258L725.954 48.351L737.651 71.298H772.742" stroke="#107B9C" stroke-opacity="0.2" stroke-width="5"/>
</svg>
