<svg width="291" height="90" viewBox="0 0 291 90" fill="none" xmlns="http://www.w3.org/2000/svg">
<path d="M267.581 71.9882H269.539V60.5898H273.574V58.8563H263.534V60.5898H267.581V71.9882ZM252.113 70.136C253.234 71.3827 254.933 72.2257 257.257 72.2257C260.773 72.2257 262.189 70.3141 262.189 68.2719C262.189 65.4816 259.699 64.8048 257.576 64.2349C255.948 63.8194 254.544 63.4513 254.544 62.2639C254.544 61.1597 255.546 60.4117 256.986 60.4117C258.425 60.4117 259.758 60.8866 260.761 61.9434L261.894 60.4829C260.738 59.3075 259.157 58.6545 257.139 58.6545C254.426 58.6545 252.526 60.2336 252.526 62.3946C252.526 65.0779 254.957 65.6835 257.045 66.2296C258.708 66.6571 260.195 67.0608 260.195 68.4381C260.195 69.3761 259.452 70.4684 257.34 70.4684C255.523 70.4684 254.119 69.6017 253.234 68.6162L252.113 70.136ZM245.07 60.5661L247.713 67.512H242.451L245.07 60.5661ZM249.329 71.9882H251.476L246.297 58.8563H243.855L238.675 71.9882H240.822L241.884 69.2692H248.279L249.341 71.9882H249.329ZM236.245 65.4341C236.245 68.3075 234.44 70.4684 231.691 70.4684C228.942 70.4684 227.137 68.3075 227.137 65.4341C227.137 62.5608 228.895 60.3998 231.691 60.3998C234.487 60.3998 236.245 62.5489 236.245 65.4341ZM225.119 65.4341C225.119 69.3286 227.797 72.2257 231.691 72.2257C235.584 72.2257 238.262 69.3286 238.262 65.4341C238.262 61.5397 235.584 58.6426 231.691 58.6426C227.797 58.6426 225.119 61.5397 225.119 65.4341ZM218.43 72.2257C220.99 72.2257 222.571 70.9909 223.609 69.4473L221.946 68.5568C221.261 69.661 219.975 70.4684 218.43 70.4684C215.787 70.4684 213.758 68.3669 213.758 65.4341C213.758 62.5014 215.799 60.3998 218.43 60.3998C219.975 60.3998 221.261 61.2072 221.946 62.3114L223.609 61.4209C222.594 59.8893 220.99 58.6426 218.43 58.6426C214.713 58.6426 211.74 61.3972 211.74 65.4341C211.74 69.4711 214.713 72.2257 218.43 72.2257ZM195.211 70.2547V60.5898H197.913C200.98 60.5898 202.667 62.7389 202.667 65.4341C202.667 68.1294 200.921 70.2547 197.913 70.2547H195.211ZM193.253 71.9882H197.913C201.983 71.9882 204.685 69.2336 204.685 65.4341C204.685 61.6347 201.983 58.8563 197.913 58.8563H193.253V71.9882ZM183.118 71.9882H190.999V70.2547H185.076V58.8563H183.118V71.9882ZM178.635 65.4341C178.635 68.3075 176.83 70.4684 174.081 70.4684C171.332 70.4684 169.527 68.3075 169.527 65.4341C169.527 62.5608 171.285 60.3998 174.081 60.3998C176.877 60.3998 178.635 62.5489 178.635 65.4341ZM167.509 65.4341C167.509 69.3286 170.187 72.2257 174.081 72.2257C177.974 72.2257 180.652 69.3286 180.652 65.4341C180.652 61.5397 177.974 58.6426 174.081 58.6426C170.187 58.6426 167.509 61.5397 167.509 65.4341ZM152.82 65.4341C152.82 69.5304 155.853 72.2494 159.427 72.2494C163.498 72.2494 165.822 69.3761 165.822 65.1017H158.696V66.8352H163.687C163.356 68.7587 162.023 70.4922 159.581 70.4922C156.855 70.4922 154.826 68.3669 154.826 65.4341C154.826 62.5014 156.855 60.3998 159.581 60.3998C161.103 60.3998 162.412 61.1716 163.156 62.169L164.737 61.2428C163.639 59.7705 162.023 58.6426 159.569 58.6426C155.829 58.6426 152.797 61.3378 152.797 65.4341" fill="white"/>
<path d="M267.451 71.727H269.41V60.3286H273.444V58.5951H263.404V60.3286H267.451V71.727ZM251.984 69.8748C253.105 71.1215 254.803 71.9645 257.128 71.9645C260.644 71.9645 262.059 70.0529 262.059 68.0106C262.059 65.2204 259.57 64.5436 257.446 63.9737C255.818 63.5581 254.414 63.1901 254.414 62.0027C254.414 60.8985 255.417 60.1505 256.856 60.1505C258.296 60.1505 259.629 60.6254 260.632 61.6821L261.764 60.2217C260.608 59.0463 259.027 58.3932 257.01 58.3932C254.296 58.3932 252.397 59.9724 252.397 62.1333C252.397 64.8167 254.827 65.4222 256.915 65.9684C258.579 66.3959 260.065 66.7996 260.065 68.1769C260.065 69.1149 259.322 70.2072 257.21 70.2072C255.393 70.2072 253.989 69.3405 253.105 68.355L251.984 69.8748ZM244.94 60.3048L247.583 67.2507H242.321L244.94 60.3048ZM249.199 71.727H251.347L246.167 58.5951H243.725L238.546 71.727H240.693L241.755 69.008H248.149L249.211 71.727H249.199ZM236.115 65.1729C236.115 68.0463 234.31 70.2072 231.561 70.2072C228.812 70.2072 227.007 68.0463 227.007 65.1729C227.007 62.2996 228.765 60.1386 231.561 60.1386C234.357 60.1386 236.115 62.2877 236.115 65.1729ZM224.99 65.1729C224.99 69.0674 227.668 71.9645 231.561 71.9645C235.455 71.9645 238.133 69.0674 238.133 65.1729C238.133 61.2784 235.455 58.3813 231.561 58.3813C227.668 58.3813 224.99 61.2784 224.99 65.1729ZM218.3 71.9645C220.86 71.9645 222.441 70.7296 223.48 69.1861L221.816 68.2956C221.132 69.3998 219.846 70.2072 218.3 70.2072C215.657 70.2072 213.628 68.1056 213.628 65.1729C213.628 62.2402 215.669 60.1386 218.3 60.1386C219.846 60.1386 221.132 60.946 221.816 62.0502L223.48 61.1597C222.465 59.628 220.86 58.3813 218.3 58.3813C214.584 58.3813 211.611 61.136 211.611 65.1729C211.611 69.2098 214.584 71.9645 218.3 71.9645ZM195.082 69.9935V60.3286H197.783C200.851 60.3286 202.538 62.4777 202.538 65.1729C202.538 67.8682 200.792 69.9935 197.783 69.9935H195.082ZM193.123 71.727H197.783C201.854 71.727 204.555 68.9724 204.555 65.1729C204.555 61.3734 201.854 58.5951 197.783 58.5951H193.123V71.727ZM182.988 71.727H190.87V69.9935H184.947V58.5951H182.988V71.727ZM178.505 65.1729C178.505 68.0463 176.7 70.2072 173.951 70.2072C171.202 70.2072 169.397 68.0463 169.397 65.1729C169.397 62.2996 171.155 60.1386 173.951 60.1386C176.747 60.1386 178.505 62.2877 178.505 65.1729ZM167.38 65.1729C167.38 69.0674 170.058 71.9645 173.951 71.9645C177.845 71.9645 180.523 69.0674 180.523 65.1729C180.523 61.2784 177.845 58.3813 173.951 58.3813C170.058 58.3813 167.38 61.2784 167.38 65.1729ZM152.691 65.1729C152.691 69.2692 155.723 71.9882 159.298 71.9882C163.368 71.9882 165.692 69.1149 165.692 64.8405H158.566V66.574H163.557C163.227 68.4974 161.893 70.231 159.451 70.231C156.726 70.231 154.697 68.1056 154.697 65.1729C154.697 62.2402 156.726 60.1386 159.451 60.1386C160.973 60.1386 162.283 60.9104 163.026 61.9077L164.607 60.9816C163.51 59.5093 161.893 58.3813 159.439 58.3813C155.699 58.3813 152.667 61.0766 152.667 65.1729" fill="white"/>
<path d="M260.301 25.0884V37.7928H252.444L260.301 25.0884ZM260.301 52.0052H269.256V45.653H273.444V37.7928H269.256V17.2757H256.892L243.808 38.6715V45.653H260.313V52.0052H260.301ZM214.112 52.0052H241.165V44.1926H227.868C237.13 38.149 240.905 33.6253 240.905 28.3179C240.905 21.3364 235.065 16.7651 226.936 16.7651C222.123 16.7651 216.637 18.4868 212.967 22.5475L217.887 28.4841C220.377 26.1451 223.267 24.6847 226.936 24.6847C229.626 24.6847 231.856 25.9314 231.856 28.3298C231.856 31.7612 229.06 34.1596 214.112 45.0356V52.0171V52.0052ZM202.066 34.6702C202.066 40.8087 200.414 44.715 196.273 44.715C192.132 44.715 190.48 40.8087 190.48 34.6702C190.48 28.5316 192.132 24.6728 196.273 24.6728C200.414 24.6728 202.066 28.5198 202.066 34.6702ZM181.478 34.6702C181.478 43.8364 186.186 52.6345 196.273 52.6345C206.36 52.6345 211.068 43.8364 211.068 34.6702C211.068 25.5039 206.36 16.7651 196.273 16.7651C186.186 16.7651 181.478 25.5158 181.478 34.6702ZM151.582 52.0052H178.635V44.1926H165.338C174.6 38.149 178.375 33.6253 178.375 28.3179C178.375 21.3364 172.535 16.7651 164.406 16.7651C159.593 16.7651 154.107 18.4868 150.438 22.5475L155.357 28.4841C157.835 26.1451 160.737 24.6847 164.406 24.6847C167.096 24.6847 169.326 25.9314 169.326 28.3298C169.326 31.7612 166.53 34.1596 151.582 45.0356V52.0171V52.0052Z" fill="white"/>
<path d="M41.2698 52.7177H49.965V17.5488H40.904V37.8048L26.7581 17.5488H17.4848V52.7177H26.4985V31.4644L41.2698 52.7177ZM103.576 52.7177L116.778 17.5488H106.56L97.9124 42.9103L89.3234 17.5488H82.4923C82.5749 18.2494 82.6221 19.318 82.2092 19.5079C81.9024 19.6385 81.1001 20.2085 80.3097 20.7546L92.2611 52.7177H103.576ZM130.876 43.8602C129.826 45.2256 127.738 46.1755 126.004 46.1755C122.806 46.1755 120.447 43.7533 120.447 39.9538C120.447 36.1544 122.806 33.8391 126.004 33.8391C127.738 33.8391 129.826 34.7296 130.876 36.1069V43.8602ZM138.899 52.7177V27.2494H130.876V30.2533C128.882 27.7243 126.157 26.6201 123.384 26.6201C117.049 26.6201 112.165 31.6306 112.165 39.9657C112.165 48.3008 117.143 53.3589 123.384 53.3589C126.216 53.3589 128.776 52.1953 130.876 49.7731V52.7296H138.899V52.7177Z" fill="white"/>
<path d="M62.0462 36.9973C61.9872 37.1873 62.0815 37.2823 62.1051 37.4485C63.0254 40.4643 61.2321 40.963 61.9046 43.1952C62.0698 43.7414 62.2821 44.2875 62.4709 44.8337C62.5653 45.1187 62.5417 45.368 62.2585 45.4868C61.9754 45.6055 61.7748 45.4511 61.6804 45.1662C61.4798 44.6081 61.2911 44.0501 61.1141 43.492C60.3354 41.3905 61.7866 40.4643 61.468 38.6477C61.3619 38.0778 61.1967 37.5197 61.0669 36.9617C60.9843 36.6411 60.8192 36.4155 60.5242 36.2493C57.8224 34.4445 58.6719 30.4788 59.5921 27.8192C58.3769 27.1424 57.2443 26.335 56.2415 25.3496C55.8404 24.9577 55.8522 24.9696 55.4864 25.397C53.3274 27.9498 52.7846 31.0013 53.115 34.2902C53.8229 40.1675 56.6426 45.748 60.8545 49.6424C62.6007 51.3166 65.208 50.9841 67.1547 49.9036C73.0774 46.8878 79.6607 34.2664 71.6026 30.0989C69.8801 29.339 68.0632 29.2203 66.2345 29.3153C64.217 29.4459 62.3057 28.9828 60.4298 28.2467C56.6662 38.434 65.3024 34.7414 69.4672 39.7044C69.9863 40.1437 71.3666 43.1477 70.2458 43.3021C69.9391 43.3139 69.7975 43.0765 69.7975 42.7915C69.7031 40.8087 68.252 39.3601 66.6002 38.624C66.671 39.4313 66.3407 40.0844 66.0929 40.8087C65.8333 41.4261 64.9367 40.8324 65.3968 40.2862C65.7744 39.8232 65.9513 38.3865 65.3614 38.0897C64.276 37.7097 63.1788 37.3654 62.0579 36.9973H62.0462Z" stroke="#8ECCDF" stroke-width="0.96" stroke-miterlimit="10"/>
<path d="M64.7244 51.3522C73.9859 54.6173 79.8967 41.521 80.1209 33.4115C80.6518 26.2757 75.8736 24.5896 77.832 22.8917C79.3658 21.6332 80.8406 20.2915 82.3507 18.9973C83.2356 18.2255 82.4687 16.8245 81.6074 16.4326C81.0057 16.1477 80.345 16.302 79.7669 16.587C79.177 16.872 78.6107 17.2044 78.0326 17.525C77.891 17.5962 77.7494 17.6556 77.5961 17.6437C77.077 17.5606 77.2775 17.145 77.3365 16.777C77.3365 16.4801 77.1006 16.2545 76.9236 16.0646C76.3927 15.4709 75.5904 14.8297 74.8117 15.3759C72.9358 16.7176 71.0481 18.0593 69.184 19.4129C67.7329 20.6833 66.1755 20.5764 64.4176 20.7427C63.4974 20.8258 63.2496 19.9828 63.1552 19.1873C62.2939 15.6609 58.0466 18.7598 56.5601 20.2202C55.5926 21.182 55.6044 22.4406 56.5129 23.4617C63.3912 31.5712 70.9302 24.4472 75.5786 31.7018C79.118 39.087 72.0392 50.2242 64.7126 51.3522H64.7244ZM78.2686 16.2783C78.8231 16.029 79.4484 15.7796 80.0501 15.4472C81.6546 14.5804 83.8845 16.6582 83.5305 18.4986C83.4597 18.8904 83.2356 19.3297 82.9524 19.591C81.5602 20.8614 80.1327 22.0844 78.7051 23.3073C78.0444 23.8772 78.0326 23.8654 78.5635 24.5896C85.6896 34.2071 75.7556 58.4049 63.049 51.5659C55.2741 46.8047 48.4902 32.2242 55.4039 24.1147C55.6162 23.8891 55.6044 23.7348 55.4511 23.4854C53.4926 19.9234 58.2 17.4063 60.8782 16.7176C62.4473 16.3852 63.6035 17.2519 63.9811 18.9142C64.1148 19.4999 64.4609 19.773 65.0193 19.7334C65.5148 19.6978 66.0103 19.6503 66.5059 19.6385C67.4261 19.6028 68.1104 19.0567 68.8183 18.5461C70.6588 17.2163 72.5111 15.8983 74.3516 14.5804C75.8736 13.4643 77.2657 15.0316 78.245 16.2783H78.2686Z" stroke="#8ECCDF" stroke-width="0.96" stroke-miterlimit="10"/>
</svg>
