<svg width="132" height="132" viewBox="0 0 132 132" fill="none" xmlns="http://www.w3.org/2000/svg">
<g clip-path="url(#clip0_1_1578)">
<path d="M19.1123 19.2062C19.7975 18.4967 20.5317 18.1052 21.3148 18.0318C22.0978 17.9584 22.8075 18.2275 23.4193 18.8392C24.0311 19.4509 24.3248 20.136 24.2269 20.9189C24.1535 21.6774 23.7619 22.4358 23.0767 23.1209V23.2432L21.3882 24.9314L24.2513 27.7451L23.4193 28.577L16.5183 21.7997L19.0878 19.1817L19.1123 19.2062ZM22.367 22.4113C22.8565 21.922 23.1012 21.4571 23.1501 20.9923C23.1746 20.5519 22.9788 20.136 22.5873 19.72C22.1713 19.3041 21.7552 19.1328 21.3148 19.1817C20.8743 19.2307 20.4093 19.4753 19.9199 19.9891L18.1824 21.7508L20.654 24.173L22.3915 22.4113H22.367ZM23.0033 22.0933L28.7297 23.2432L27.7508 24.2463L22.7586 23.2677L22.9788 22.1177L23.0033 22.0933Z" fill="#003E67"/>
<path d="M31.96 20.7232L26.5518 12.6737L32.1802 8.88135L32.792 9.78661L28.1179 12.9183L29.8554 15.5118L33.4772 13.0651L34.089 13.9704L30.4672 16.4171L32.2781 19.1084L37.1235 15.8543L37.7353 16.7596L31.911 20.6743L31.96 20.7232Z" fill="#003E67"/>
<path d="M40.4516 15.3162L40.2559 4.91791L41.5529 4.37964L48.6986 11.9154L47.5484 12.3802L42.2625 6.75291L41.3326 5.67637H41.3081L41.406 7.04651L41.6018 14.8269L40.4516 15.2918V15.3162ZM41.1368 12.1356L40.7208 11.108L45.5173 9.15064L45.9333 10.1782L41.1368 12.1356Z" fill="#003E67"/>
<path d="M53.8132 0.856441C55.3059 0.587308 56.554 0.807508 57.5573 1.46811C58.5607 2.15317 59.1969 3.25417 59.4661 4.77111C59.7353 6.31251 59.5151 7.56031 58.8054 8.53898C58.0957 9.51764 56.9945 10.1293 55.5017 10.3984L52.4183 10.9367L50.7297 1.39471L53.8132 0.856441ZM55.4283 9.29744C56.5295 9.10171 57.3126 8.63684 57.802 7.87838C58.2915 7.11991 58.4383 6.16571 58.2425 5.01577C58.0468 3.86584 57.5818 3.00951 56.8476 2.47124C56.1135 1.93297 55.208 1.76171 54.1313 1.95744L52.1002 2.32444L53.3971 9.68891L55.4283 9.32191V9.29744Z" fill="#003E67"/>
<path d="M82.7141 1.71261L80.9277 11.2301L79.8265 11.0344L80.9522 5.04008L81.564 2.54448L76.841 10.4472L75.8621 10.2759L74.3204 1.19881L73.9778 3.74335L72.8521 9.73768L71.7509 9.54195L73.5373 0.0244141L75.3237 0.366947L76.3271 6.53255L76.5962 9.05261H76.6207L77.7954 6.82615L80.9522 1.41901L82.7386 1.76155L82.7141 1.71261Z" fill="#003E67"/>
<path d="M93.237 5.48045C94.069 5.87192 94.7053 6.38572 95.1702 7.02185C95.6107 7.65798 95.8555 8.41645 95.8799 9.24832C95.9044 10.0802 95.7086 10.961 95.2926 11.8907C94.8766 12.8205 94.3382 13.5545 93.702 14.0927C93.0657 14.6065 92.356 14.9246 91.5729 15.0224C90.7898 15.1203 89.9823 14.9735 89.1502 14.5821C88.3182 14.1906 87.6819 13.6768 87.217 13.0407C86.7765 12.4045 86.5318 11.646 86.5073 10.8386C86.4828 10.0068 86.6786 9.12598 87.0946 8.19625C87.5106 7.26652 88.049 6.53252 88.6853 5.99425C89.3215 5.45598 90.0312 5.16238 90.8143 5.06452C91.5974 4.96665 92.405 5.11345 93.237 5.50492V5.48045ZM92.772 6.48358C92.1602 6.21445 91.5729 6.11658 91.0101 6.18998C90.4472 6.26338 89.9089 6.50805 89.4194 6.94845C88.93 7.38885 88.5384 7.95158 88.1958 8.68558C87.8532 9.41958 87.6819 10.1047 87.6819 10.7653C87.6819 11.4259 87.8288 11.9641 88.1714 12.4535C88.4895 12.9428 88.9545 13.3098 89.5662 13.5789C90.178 13.8481 90.7654 13.9704 91.3527 13.8725C91.94 13.7747 92.4539 13.53 92.9189 13.1141C93.4083 12.6981 93.7998 12.1109 94.1424 11.3769C94.485 10.6429 94.6563 9.95785 94.6563 9.29725C94.6563 8.66112 94.5095 8.09838 94.1914 7.60905C93.8733 7.11972 93.4083 6.75272 92.7965 6.45912L92.772 6.48358Z" fill="#003E67"/>
<path d="M105.791 13.1385C106.574 13.7257 107.063 14.4108 107.235 15.1693C107.406 15.9277 107.235 16.6617 106.721 17.3713C106.207 18.0563 105.546 18.4233 104.787 18.4478C104.004 18.4723 103.221 18.2031 102.438 17.5915H102.316L100.407 16.1724L97.9844 19.402L97.0544 18.6925L102.879 10.9365L105.815 13.1385H105.791ZM103.05 16.7841C103.613 17.2 104.102 17.3957 104.543 17.3713C104.983 17.3468 105.375 17.1021 105.717 16.6373C106.06 16.1724 106.182 15.732 106.084 15.2916C105.987 14.8512 105.668 14.4353 105.106 14.0193L103.123 12.5269L101.043 15.2916L103.026 16.7841H103.05ZM103.442 17.3713L103.074 23.1943L101.949 22.3625L102.267 17.2979L103.442 17.3713Z" fill="#003E67"/>
<path d="M105.987 26.057L113.23 19.6223L117.733 24.7114L116.901 25.4454L113.181 21.2371L110.832 23.3168L113.744 26.5953L112.912 27.3293L110 24.0508L107.553 26.2038L111.419 30.5834L110.587 31.3174L105.938 26.0815L105.987 26.057Z" fill="#003E67"/>
<path d="M129.577 48.3218C129.846 49.276 129.822 50.1079 129.479 50.8174C129.161 51.5269 128.574 51.9918 127.717 52.2365C126.885 52.4811 126.151 52.3588 125.515 51.9184C124.879 51.478 124.438 50.7685 124.169 49.8143L124.071 49.7409L123.435 47.441L119.568 48.5175L119.25 47.3921L128.574 44.7986L129.553 48.3463L129.577 48.3218ZM125.123 50.2547L121.281 54.6587L120.914 53.313L124.242 49.4962L125.123 50.2791V50.2547ZM125.172 49.5451C125.368 50.2057 125.637 50.6706 126.004 50.9153C126.371 51.1599 126.836 51.2089 127.399 51.0621C127.962 50.9153 128.329 50.6217 128.525 50.2302C128.721 49.8387 128.721 49.3005 128.525 48.6154L127.864 46.2177L124.536 47.1474L125.197 49.5451H125.172Z" fill="#003E67"/>
<path d="M121.869 58.7446L131.535 58.084L132 64.8613L130.899 64.9347L130.507 59.3318L127.399 59.552L127.693 63.9071L126.592 63.9805L126.298 59.6254L123.043 59.8456L123.435 65.6687L122.334 65.7421L121.869 58.7446Z" fill="#003E67"/>
<path d="M122.309 68.7268L131.413 73.7425L131.241 75.1371L121.135 77.5837L121.306 76.3359L128.819 74.5499L130.214 74.2807L128.966 73.6691L122.114 69.9746L122.285 68.7513L122.309 68.7268ZM124.732 70.9043L125.833 71.0511L125.148 76.1891L124.047 76.0423L124.732 70.9043Z" fill="#003E67"/>
<path d="M128.231 87.4682C127.717 88.8873 126.91 89.866 125.833 90.4042C124.756 90.9425 123.484 90.9425 122.016 90.4042C120.547 89.8904 119.568 89.0586 119.079 87.9576C118.589 86.8566 118.589 85.6088 119.103 84.1653L120.156 81.2292L129.284 84.5078L128.231 87.4438V87.4682ZM120.107 84.679C119.74 85.7311 119.74 86.6364 120.156 87.4438C120.572 88.2512 121.33 88.8628 122.432 89.2543C123.533 89.6458 124.512 89.6702 125.344 89.3032C126.176 88.9362 126.787 88.2512 127.155 87.1991L127.864 85.2418L120.816 82.6972L120.107 84.6546V84.679Z" fill="#003E67"/>
<path d="M113.01 112.131L105.644 105.818L106.378 104.962L111.003 108.926L112.863 110.687L108.36 102.638L109.021 101.879L117.66 105.084L115.628 103.518L111.003 99.5548L111.737 98.6985L119.103 105.011L117.929 106.381L112.08 104.179L109.755 103.151L111.101 105.304L114.209 110.761L113.034 112.131H113.01Z" fill="#003E67"/>
<path d="M104.518 119.373C103.76 119.911 103.001 120.205 102.218 120.278C101.435 120.352 100.676 120.18 99.9422 119.789C99.2081 119.397 98.5473 118.786 97.9355 117.954C97.3237 117.122 96.9567 116.29 96.8343 115.483C96.6875 114.675 96.7854 113.892 97.079 113.183C97.3727 112.473 97.9111 111.837 98.6697 111.299C99.4283 110.761 100.187 110.467 100.97 110.394C101.753 110.345 102.512 110.491 103.246 110.883C103.98 111.274 104.641 111.886 105.253 112.718C105.864 113.55 106.231 114.382 106.354 115.189C106.501 115.996 106.403 116.779 106.109 117.489C105.815 118.198 105.277 118.835 104.518 119.373ZM103.882 118.492C104.421 118.101 104.812 117.636 105.008 117.097C105.228 116.559 105.277 115.972 105.155 115.36C105.032 114.724 104.739 114.088 104.249 113.427C103.76 112.767 103.27 112.278 102.708 111.959C102.145 111.641 101.582 111.495 101.019 111.544C100.456 111.592 99.8933 111.788 99.3304 112.18C98.792 112.571 98.4005 113.036 98.1802 113.574C97.96 114.113 97.9355 114.7 98.0579 115.311C98.1802 115.948 98.4739 116.584 98.9633 117.244C99.4283 117.905 99.9422 118.394 100.505 118.712C101.068 119.03 101.631 119.177 102.194 119.153C102.756 119.128 103.319 118.908 103.882 118.517V118.492Z" fill="#003E67"/>
<path d="M89.1257 122.309L84.2559 119.079L85.5284 118.517L89.762 121.306L89.1257 122.284V122.309ZM91.6218 126.468C90.7164 126.86 89.8843 126.933 89.1257 126.713C88.3671 126.468 87.8287 125.954 87.4861 125.172C87.1435 124.364 87.1435 123.63 87.5106 122.945C87.8777 122.26 88.5139 121.722 89.4194 121.33L89.4928 121.232L91.6708 120.303L90.0801 116.608L91.1569 116.143L94.9744 125.049L91.5974 126.493L91.6218 126.468ZM89.8354 122.26C89.1991 122.529 88.7831 122.872 88.5873 123.263C88.3916 123.655 88.416 124.119 88.6363 124.658C88.8565 125.196 89.1991 125.514 89.6151 125.661C90.0312 125.783 90.5695 125.71 91.2058 125.441L93.4817 124.462L92.1113 121.281L89.8354 122.26Z" fill="#003E67"/>
<path d="M80.3648 120.18L82.3225 129.673L75.6663 131.043L75.446 129.967L80.9521 128.841L80.3159 125.783L76.0333 126.664L75.8131 125.587L80.0956 124.707L79.4349 121.526L73.7085 122.7L73.4883 121.624L80.3648 120.205V120.18Z" fill="#003E67"/>
<path d="M49.2613 129.527C48.307 129.282 47.5973 128.842 47.1323 128.205C46.6674 127.569 46.5695 126.811 46.7652 125.979C46.9855 125.147 47.4505 124.56 48.1357 124.242C48.8453 123.924 49.6774 123.875 50.6318 124.12L50.7541 124.071L53.0545 124.658L54.0333 120.768L55.159 121.061L52.7608 130.456L49.2124 129.551L49.2613 129.527ZM50.4115 125.098C49.7508 124.927 49.2124 124.951 48.7964 125.147C48.4048 125.343 48.1357 125.71 47.9888 126.273C47.842 126.835 47.8909 127.3 48.1601 127.667C48.4048 128.034 48.8698 128.303 49.555 128.475L51.9532 129.086L52.8097 125.734L50.4115 125.123V125.098ZM49.8242 124.707L47.9154 119.177L49.2613 119.52L50.9254 124.315L49.8242 124.707Z" fill="#003E67"/>
<path d="M44.0734 117.66L39.8153 126.37L33.6974 123.385L34.1868 122.407L39.2524 124.878L40.6229 122.064L36.6829 120.156L37.1724 119.177L41.1123 121.085L42.5316 118.149L37.2702 115.58L37.7597 114.602L44.0734 117.685V117.66Z" fill="#003E67"/>
<path d="M35.1658 113.061L26.2581 118.443L25.1569 117.587L28.0935 107.604L29.0723 108.363L26.8454 115.776L26.3804 117.122L27.5061 116.364L34.1379 112.302L35.1168 113.061H35.1658ZM32.0579 114.064L31.3971 114.944L27.2859 111.788L27.9466 110.907L32.0579 114.064Z" fill="#003E67"/>
<path d="M15.9555 108.779C14.9767 107.629 14.5117 106.43 14.6096 105.231C14.683 104.032 15.3193 102.931 16.5184 101.928C17.7175 100.925 18.8921 100.485 20.0912 100.607C21.2904 100.729 22.3916 101.365 23.3704 102.515L25.4016 104.889L18.0112 111.152L15.98 108.754L15.9555 108.779ZM22.4405 103.127C21.7308 102.295 20.9233 101.83 20.0178 101.781C19.1124 101.732 18.2069 102.099 17.326 102.858C16.4205 103.616 15.9311 104.448 15.8332 105.353C15.7353 106.259 16.029 107.139 16.7631 107.971L18.109 109.562L23.8109 104.717L22.465 103.127H22.4405Z" fill="#003E67"/>
<path d="M2.17804 83.3825L11.306 80.1284L11.673 81.1805L5.9222 83.2112L3.47503 83.9452L12.7008 84.0676L13.0434 84.9973L5.97114 90.8938L8.34489 89.9151L14.0957 87.8843L14.4628 88.9364L5.33488 92.1905L4.72309 90.5023L9.56847 86.5142L11.5996 85.0218L9.07904 85.0951H2.76536L2.15356 83.3825H2.17804Z" fill="#003E67"/>
<path d="M0.122351 72.3234C0.024464 71.4182 0.146822 70.5863 0.489425 69.9012C0.832028 69.1917 1.34593 68.629 2.05561 68.1886C2.76529 67.7482 3.62179 67.479 4.6496 67.3812C5.67741 67.2833 6.58286 67.3812 7.34148 67.6748C8.1001 67.9684 8.73637 68.4332 9.20133 69.0449C9.66629 69.681 9.95995 70.4395 10.0334 71.3692C10.1312 72.2745 10.0089 73.1064 9.66629 73.8159C9.32369 74.5254 8.80978 75.0882 8.1001 75.5286C7.39043 75.969 6.53392 76.2381 5.50611 76.336C4.4783 76.4338 3.57285 76.336 2.81423 76.0424C2.03114 75.7488 1.41935 75.2839 0.954386 74.6722C0.489425 74.0606 0.195765 73.2776 0.122351 72.3479V72.3234ZM1.22357 72.2256C1.29699 72.8862 1.49276 73.4489 1.85984 73.9138C2.20244 74.3786 2.69187 74.6967 3.30366 74.9169C3.91545 75.1126 4.62513 75.186 5.4327 75.1126C6.24026 75.0392 6.92547 74.819 7.46384 74.501C8.02669 74.1829 8.41823 73.767 8.68742 73.2532C8.95661 72.7394 9.0545 72.1522 8.98108 71.4916C8.90767 70.831 8.71189 70.2682 8.34482 69.8034C7.97775 69.363 7.51278 69.0204 6.90099 68.8247C6.2892 68.629 5.57953 68.5556 4.77196 68.629C3.9644 68.7024 3.27919 68.8981 2.74082 69.2406C2.17797 69.5587 1.78642 69.9746 1.51723 70.4884C1.24805 71.0022 1.15016 71.5894 1.22357 72.2745V72.2256Z" fill="#003E67"/>
<path d="M0.416018 57.7413C0.538376 56.7626 0.880979 56.0042 1.44383 55.4659C2.00667 54.9276 2.74082 54.7074 3.59733 54.8053C4.45384 54.9032 5.11457 55.2702 5.50612 55.9308C5.92214 56.5914 6.06897 57.3988 5.94661 58.3774L6.02002 58.4998L5.75083 60.873L9.73971 61.3379L9.61735 62.5123L0 61.4113L0.416018 57.7658V57.7413ZM4.94327 58.2796C5.01669 57.5945 4.94327 57.0562 4.69855 56.6892C4.45384 56.3222 4.03782 56.102 3.47497 56.0286C2.91212 55.9552 2.44716 56.0776 2.12903 56.3956C1.8109 56.6892 1.59066 57.203 1.51724 57.8881L1.22358 60.3592L4.67408 60.7507L4.96774 58.2796H4.94327ZM5.2614 57.6434L10.4739 55.0255L10.327 56.4201L5.79978 58.72L5.2614 57.6679V57.6434Z" fill="#003E67"/>
<path d="M11.4772 50.9884L2.27588 47.9546L4.40491 41.4954L5.45719 41.8379L3.69523 47.1716L6.6563 48.1503L8.02671 43.991L9.07899 44.3335L7.70858 48.4928L10.8165 49.5204L12.6519 43.9665L13.7041 44.309L11.5017 50.964L11.4772 50.9884Z" fill="#003E67"/>
<path d="M12.8721 32.394C12.4805 32.1248 11.9422 32.2227 11.6975 32.6142C11.4527 33.0056 11.5262 33.5439 11.9177 33.7886C12.089 33.9109 12.3827 34.0577 12.8232 33.9843C13.2636 33.9109 14.4383 33.4216 14.4383 33.4216C14.4383 33.4216 14.4383 32.1493 14.3649 31.7089C14.2914 31.2685 14.0223 31.0728 13.851 30.9504C13.4594 30.6813 12.921 30.7792 12.6763 31.1706C12.4316 31.5621 12.505 32.1004 12.8966 32.345" fill="#003E67"/>
<path d="M120.523 36.0883C120.914 35.8191 121.012 35.2809 120.743 34.8894C120.474 34.4979 119.936 34.4001 119.544 34.6692C119.373 34.7915 119.103 35.0117 119.03 35.4277C118.957 35.8436 118.957 37.1403 118.957 37.1403C118.957 37.1403 120.156 37.6052 120.572 37.6786C120.988 37.752 121.281 37.6052 121.477 37.4829C121.869 37.2137 121.967 36.6755 121.697 36.284C121.428 35.8925 120.89 35.7947 120.498 36.0638" fill="#003E67"/>
<path d="M63.7241 127.422C63.6507 127.887 63.9688 128.328 64.4338 128.401C64.8987 128.475 65.3392 128.156 65.4126 127.692C65.4371 127.471 65.4616 127.153 65.2169 126.786C64.9722 126.419 64.0178 125.563 64.0178 125.563C64.0178 125.563 62.8676 126.101 62.5005 126.37C62.1334 126.64 62.06 126.933 62.0356 127.153C61.9621 127.618 62.2803 128.059 62.7452 128.132C63.2102 128.205 63.6507 127.887 63.7241 127.422Z" fill="#003E67"/>
<path d="M73.2013 43.2817C74.8547 50.2953 82.7911 64.3223 94.6957 64.3223C88.082 67.3281 73.2013 76.3455 73.2013 88.3687" stroke="#003E67" stroke-width="1.5"/>
<line x1="92.6047" y1="65.0725" x2="39.6954" y2="65.0725" stroke="#003E67" stroke-width="1.5"/>
</g>
<defs>
<clipPath id="clip0_1_1578">
<rect width="132" height="131.043" fill="white"/>
</clipPath>
</defs>
</svg>
