<svg width="40px" height="40px" viewBox="0 0 40 40" version="1.1" xmlns="http://www.w3.org/2000/svg" xmlns:xlink="http://www.w3.org/1999/xlink">
    <g id="icon-facebook" fill="#000000">
        <path d="M18.346585,28 L18.346585,21.291004 L16,21.291004 L16,18.6249943 L18.346585,18.6249943 L18.346585,16.5244056 C18.346585,14.2421854 19.8028822,13 21.929191,13 C22.9479786,13 23.8229795,13.0732418 24.0769088,13.1054684 L24.0769088,15.4902301 L22.6022637,15.4902301 C21.4457932,15.4902301 21.222456,16.0175765 21.222456,16.7880788 L21.222456,18.6249943 L23.8321534,18.6249943 L23.4742035,21.291004 L21.222456,21.291004 L21.222456,28" id="icon"></path>
        <path d="M20,0 C31.045695,0 40,8.954305 40,20 C40,31.045695 31.045695,40 20,40 C8.954305,40 0,31.045695 0,20 C0,8.954305 8.954305,0 20,0 Z M20,0.7 C9.34090433,0.7 0.7,9.34090433 0.7,20 C0.7,30.6590957 9.34090433,39.3 20,39.3 C30.6590957,39.3 39.3,30.6590957 39.3,20 C39.3,9.34090433 30.6590957,0.7 20,0.7 Z" id="circle" fill-rule="nonzero"></path>
    </g>
</svg>
