<svg width="200px" height="197px" viewBox="0 0 200 197" version="1.1" xmlns="http://www.w3.org/2000/svg" xmlns:xlink="http://www.w3.org/1999/xlink">
    <g id="logo-quarry-solutions" stroke="none" stroke-width="1" fill="none" fill-rule="evenodd">
        <path d="M80.6114494,16.725179 L77.0298846,20.3433034 L115.655015,20.3433034 L115.655015,16.725179 L80.6114494,16.725179 Z M74.6433212,22.7538152 L69.8709587,27.5748389 L115.65476,27.5748389 L115.65476,22.7538152 L74.6433212,22.7538152 Z M67.4850322,29.9900639 L61.5171588,36.0141143 L115.655015,36.0141143 L115.655015,29.9900639 L67.4850322,29.9900639 Z M59.1309776,38.4246261 L51.9723064,45.6561616 L148.02298,45.6561616 L140.863927,38.4246261 L59.1309776,38.4246261 Z M49.5861252,48.0668008 L41.2320705,56.5060763 L158.767929,56.5060763 L150.414002,48.0668008 L49.5861252,48.0668008 Z M38.8458893,58.9165881 L29.3011643,68.5634761 L170.698836,68.5634761 L161.148761,58.9165881 L38.8458893,58.9165881 Z M85.3838119,11.9041171 L82.9976306,14.3146671 L115.655015,14.3146671 L115.655015,12.9538101 L114.615933,11.9041171 L85.3838119,11.9041171 Z M88.9652493,8.2859545 L87.7698657,9.49354157 L112.234211,9.49354157 L111.034241,8.2859545 L88.9652493,8.2859545 Z M91.9492497,5.27626048 L91.3469721,5.88005401 L108.652773,5.88005401 L108.055081,5.27626048 L91.9492497,5.27626048 Z M94.6341494,2.55920868 L94.3307177,2.86576138 L105.668645,2.86576138 L105.365214,2.55920868 L94.6341494,2.55920868 Z M97.1675881,-6.43929354e-15 L97.0158722,0.153271254 L102.983746,0.153271254 L102.836616,-6.43929354e-15 L97.1675881,-6.43929354e-15 Z M138.178645,108.046929 L199.994905,108.046929 L199.994905,133.211893 C199.994905,141.479198 197.126188,148.449721 191.374742,154.120914 C185.627118,159.801024 178.716466,162.635347 170.642786,162.635347 L115.057323,162.635347 L115.057323,139.104736 L170.647882,139.104736 C174.684721,139.104736 176.698683,137.038547 176.698683,132.90999 L176.698683,131.218313 L115.061909,131.218313 L115.061909,106.054495 C115.061909,98.0378844 117.935467,91.1267229 123.687167,85.3257242 C129.433645,79.529184 136.284426,76.6356271 144.234542,76.6356271 L200,76.6356271 L200,100.165091 L144.965733,100.165091 C143.135207,100.165091 141.572189,100.824692 140.289419,102.134468 C139.00665,103.453543 138.298387,105.046623 138.183741,106.923008 L138.183741,108.051642 L138.178645,108.046929 Z M28.1470536,140.33669 C28.1470536,140.33669 23.0573743,140.433365 23.0573743,135.495911 L23.0573743,101.029018 L54.740134,101.029018 C59.1125067,101.029018 61.300986,103.235204 61.300986,107.652162 L61.300986,124.107921 L53.4941785,116.226083 L38.1838679,131.688365 L46.7492548,140.33669 L28.1470536,140.33669 Z M84.4182314,139.774783 L84.4779751,132.050139 L84.4779751,106.184556 C84.4779751,98.1772439 81.4389442,91.3404754 75.3607551,85.6739956 C69.5170824,80.379226 62.528598,77.7317775 54.3768312,77.7317775 L0,77.7317775 L0,134.321419 C0,142.184912 2.97929989,148.947798 8.93791241,154.594787 C14.8965631,160.243051 21.7700186,163.081195 29.55861,163.081195 L105.696288,163.081195 L105.696288,139.778604 L84.4182314,139.778604 L84.4182314,139.774783 Z M15.3976969,179.526636 C15.3976969,177.604392 15.3194823,176.354743 14.4321164,175.584062 C13.4436065,174.734402 12.1838934,174.710198 10.4045884,174.710198 L9.29654022,174.710198 C7.54021554,174.710198 6.28045145,174.734402 5.2689613,175.606991 C4.3770095,176.382767 4.3034445,177.604392 4.3034445,179.550839 L4.3034445,184.69211 C4.3034445,186.638557 4.3770095,187.835979 5.2689613,188.611755 C6.28045145,189.485618 7.54021554,189.508548 9.29654022,189.508548 L10.8505643,189.508548 C12.4321673,189.508548 13.4481924,189.457593 13.917225,189.183715 L10.5287254,185.764694 L11.7930881,184.469185 L15.2275101,187.886933 C15.3240682,187.288222 15.4022827,186.363405 15.4022827,185.115029 L15.4022827,179.526636 L15.3976969,179.526636 Z M8.72642735,172.810884 L11.0022802,172.810884 C15.8436728,172.810884 17.4758605,174.311483 17.4758605,179.026012 L17.4758605,185.188912 C17.4758605,187.060202 17.3516598,188.332781 16.5562661,189.206644 L17.6459198,190.307253 L16.3356348,191.653716 L15.1999949,190.479223 C14.409187,191.277929 13.0758452,191.402767 11.0022802,191.402767 L8.72642735,191.402767 C3.9310336,191.402767 2.25287254,189.861405 2.25287254,185.188912 L2.25287254,179.026012 C2.25287254,174.357341 3.9310336,172.810884 8.72642735,172.810884 Z M31.3562712,191.181116 L29.5540241,191.181116 L29.5540241,189.434664 C28.9332756,190.758197 27.5770044,191.356908 25.3746401,191.356908 C21.9907773,191.356908 20.8781942,190.103437 20.8781942,186.758299 L20.8781942,178.347048 L22.7586558,178.347048 L22.7586558,186.359583 C22.7586558,188.853787 23.2275611,189.629564 25.6505567,189.629564 C28.2941836,189.629564 29.4528802,188.453797 29.4528802,185.811826 L29.4528802,178.347048 L31.3562712,178.347048 L31.3562712,191.176021 L31.3562712,191.181116 Z M43.5355787,186.5634 C43.5355787,185.290821 42.2528088,184.794018 39.6780974,184.794018 C37.3056737,184.794018 36.5930804,185.216937 36.5930804,187.065298 C36.5930804,189.113653 37.2827444,189.591348 39.8803852,189.591348 C42.3264375,189.591348 43.5355787,188.964612 43.5355787,187.920053 L43.5355787,186.568495 L43.5355787,186.5634 Z M39.6321113,191.356908 C35.9264732,191.356908 34.6160607,190.632086 34.6160607,187.288222 C34.6160607,185.666607 34.8368194,184.616952 35.6276273,183.944358 C36.3218771,183.368577 37.5815903,183.219536 39.5309674,183.219536 C41.6045451,183.219536 42.8643856,183.493414 43.5355787,184.469185 L43.5355787,182.24886 C43.5355787,179.97758 42.8689715,179.754656 39.903442,179.754656 C37.7792922,179.754656 36.9884844,180.028534 36.965555,181.524038 L35.0850934,181.524038 L35.0850934,181.222134 C35.0850934,178.899901 36.5425085,178.180174 39.7792413,178.180174 C42.1470791,178.180174 43.6551935,178.329215 44.4000153,178.899901 C45.3608825,179.647652 45.4160404,180.674378 45.4160404,182.19281 L45.4160404,191.179843 L43.7057655,191.179843 L43.6321368,189.83338 C43.0115156,190.956918 41.7287458,191.356908 39.6275254,191.356908 M49.1677919,178.352144 L50.9975542,178.352144 L50.9975542,180.098596 C51.5400882,178.75086 52.6527987,178.180174 54.4781025,178.180174 C57.347074,178.180174 58.2390258,179.475682 58.2390258,182.773687 L58.2390258,182.871774 L56.3355074,182.871774 L56.3355074,182.494714 C56.3355074,180.521515 55.8895315,179.898601 54.0367124,179.898601 C51.8619908,179.898601 51.0711829,181.120226 51.0711829,183.716338 L51.0711829,191.179843 L49.1677919,191.179843 L49.1677919,178.352144 Z M60.7353953,178.352144 L62.5606991,178.352144 L62.5606991,180.098596 C63.1078189,178.75086 64.220402,178.180174 66.0457058,178.180174 C68.9100915,178.180174 69.8020433,179.475682 69.8020433,182.773687 L69.8020433,182.871774 L67.9031107,182.871774 L67.9031107,182.494714 C67.9031107,180.521515 67.452549,179.898601 65.6043158,179.898601 C63.4295942,179.898601 62.6387863,181.120226 62.6387863,183.716338 L62.6387863,191.179843 L60.7353953,191.179843 L60.7353953,178.352144 Z M72.3585386,178.352144 L76.1378054,189.382436 L79.8987287,178.352144 L81.7516751,178.352144 L76.9562559,192.304655 C76.0412474,194.97465 75.2275101,196.173346 73.1769891,196.173346 C72.8781432,196.173346 72.5562406,196.150417 72.1884793,196.099462 L72.1884793,194.421798 C72.3861812,194.446001 72.5838832,194.446001 72.7585284,194.446001 C74.018369,194.446001 74.4872742,193.921174 75.0068788,192.499554 L75.4757841,191.170926 L74.9056075,191.170926 L70.4826629,178.343227 L72.3631245,178.343227 L72.3585386,178.352144 Z M87.6273216,185.564699 L87.6273216,185.736669 C87.6273216,187.065298 88.2204275,187.511146 89.9768159,187.511146 L91.185957,187.511146 C92.6204428,187.511146 93.1629767,187.186314 93.1629767,186.159588 L93.1629767,185.360883 C93.1629767,184.316323 92.5423556,184.162187 91.236529,184.01442 L87.3330616,183.591501 C84.4136455,183.265395 83.1308756,181.822119 83.1308756,178.820922 L83.1308756,177.701205 C83.1308756,176.001885 83.6734096,174.655423 84.6894347,173.804489 C85.7285165,172.9319 87.0847876,172.805788 89.038878,172.805788 L91.9307788,172.805788 C95.563043,172.805788 97.4618481,174.35352 97.4618481,177.074469 L97.4618481,178.324119 L92.8412015,178.324119 L92.8412015,178.124124 C92.8412015,177.023515 92.3952256,176.675753 91.0848131,176.675753 L89.9768159,176.675753 C88.5652595,176.675753 87.9767394,176.926703 87.9767394,177.897378 L87.9767394,178.64513 C87.9767394,179.643831 88.6434741,179.717714 89.9308298,179.866755 L93.4894652,180.265471 C96.5515528,180.614507 98.0595399,182.062877 98.0595399,184.683193 L98.0595399,186.428371 C98.0595399,189.396448 96.1054495,191.39385 92.9423454,191.39385 L89.0112354,191.39385 C84.8871366,191.39385 83.0112609,190.047387 83.0112609,186.800336 L83.0112609,185.550687 L87.6320349,185.550687 L87.6273216,185.564699 Z M104.353774,185.792719 C104.353774,187.688212 104.450332,188.286923 105.884818,188.286923 L106.37678,188.286923 C107.80668,188.286923 107.884895,187.660187 107.884895,185.792719 L107.884895,183.744363 C107.884895,181.845049 107.80668,181.245064 106.37678,181.245064 L105.884818,181.245064 C104.450332,181.245064 104.353774,181.873073 104.353774,183.744363 L104.353774,185.792719 Z M105.268783,178.180174 L106.974472,178.180174 C110.730809,178.180174 112.018165,179.601794 112.018165,183.447555 L112.018165,186.089526 C112.018165,189.935288 110.730809,191.356908 106.974472,191.356908 L105.268783,191.356908 C101.512446,191.356908 100.22509,189.935288 100.22509,186.089526 L100.22509,183.447555 C100.22509,179.601794 101.512446,178.180174 105.268783,178.180174 Z M119.080023,173.033808 L114.978854,173.033808 L114.978854,191.179843 L119.080023,191.179843 L119.080023,173.033808 Z M133.930346,191.181116 L130.02726,191.181116 L130.082036,189.359507 C129.341928,190.804056 128.252783,191.356908 126.468625,191.356908 C123.254822,191.356908 122.441084,190.130188 122.441084,186.71244 L122.441084,178.352144 L126.468625,178.352144 L126.468625,185.787623 C126.468625,187.711141 126.767471,188.007949 128.275713,188.007949 C129.783955,188.007949 129.907518,187.288222 129.907518,185.560877 L129.907518,178.347048 L133.935441,178.347048 L133.935441,191.176021 L133.930346,191.181116 Z M138.155716,190.056304 C137.535349,189.234669 137.489491,188.309852 137.489491,187.186314 L137.489491,181.320221 L136.032203,181.320221 L136.032203,178.347048 L137.489491,178.347048 L137.489491,175.880869 L141.51614,175.880869 L141.51614,178.347048 L146.900716,178.347048 L146.900716,181.320221 L141.51614,181.320221 L141.51614,186.5634 C141.51614,187.934065 141.640977,188.360806 142.826934,188.360806 C143.866398,188.360806 144.09187,188.013044 144.09187,186.986319 L144.09187,185.913735 L147.452294,185.913735 L147.452294,187.358284 C147.452294,190.079234 146.243408,191.351813 143.549209,191.351813 L141.401493,191.351813 C139.893251,191.351813 138.832132,190.930167 138.164633,190.056304 M149.963058,178.352144 L154.063591,178.352144 L154.063591,191.179843 L149.963058,191.179843 L149.963058,178.352144 Z M149.963058,173.033808 L154.063591,173.033808 L154.063591,176.229905 L149.963058,176.229905 L149.963058,173.033808 Z M161.034114,185.792719 C161.034114,187.688212 161.130927,188.286923 162.565285,188.286923 L163.056992,188.286923 C164.487529,188.286923 164.565234,187.660187 164.565234,185.792719 L164.565234,183.744363 C164.565234,181.845049 164.487529,181.245064 163.056992,181.245064 L162.565285,181.245064 C161.130927,181.245064 161.034114,181.873073 161.034114,183.744363 L161.034114,185.792719 Z M161.94874,178.180174 L163.654429,178.180174 C167.411021,178.180174 168.698887,179.601794 168.698887,183.447555 L168.698887,186.089526 C168.698887,189.935288 167.411021,191.356908 163.654429,191.356908 L161.94874,191.356908 C158.192148,191.356908 156.909378,189.935288 156.909378,186.089526 L156.909378,183.447555 C156.909378,179.601794 158.192148,178.180174 161.94874,178.180174 Z M171.608367,178.352144 L175.512726,178.352144 L175.456676,180.17248 C176.196785,178.72793 177.287203,178.180174 179.066775,178.180174 C182.279432,178.180174 183.093424,179.429823 183.093424,182.847571 L183.093424,191.184938 L179.066775,191.184938 L179.066775,183.749459 C179.066775,181.831036 178.772515,181.529133 177.264274,181.529133 C175.756032,181.529133 175.631194,182.276885 175.631194,184.000408 L175.631194,191.184938 L171.604545,191.184938 L171.604545,178.357239 L171.608367,178.352144 Z M189.843571,187.511146 C189.990064,188.537872 190.435912,188.760796 191.521235,188.760796 L192.068992,188.760796 C193.277878,188.760796 193.718631,188.486918 193.718631,187.511146 C193.718631,186.535375 193.328832,186.336654 192.012942,186.215638 L189.420652,185.964689 C187.144277,185.741765 185.810553,184.390207 185.810553,182.643754 L185.810553,181.622124 C185.810553,179.396703 187.415607,178.175078 190.555655,178.175078 L193.052406,178.175078 C195.944052,178.175078 197.378411,179.29989 197.378411,181.524038 L197.378411,181.797916 L193.374691,181.797916 C193.351762,181.074368 192.854959,180.753357 191.84352,180.753357 L191.323788,180.753357 C190.211714,180.753357 189.792617,181.101118 189.792617,181.969886 C189.792617,182.717638 190.114902,182.968587 190.978574,183.04247 L193.843469,183.317622 C196.459963,183.563476 197.746554,184.537974 197.746554,186.433467 L197.746554,187.534076 C197.746554,189.879239 196.06889,191.356908 193.195078,191.356908 L190.500879,191.356908 C187.246185,191.356908 185.66406,190.181142 185.66406,187.688212 L185.66406,187.511146 L189.838475,187.511146 L189.843571,187.511146 Z" id="logo-quarry-solutions" fill="#ff8a11" fill-rule="nonzero"></path>
    </g>
</svg>
