<svg width="200px" height="168px" viewBox="0 0 200 168" version="1.1" xmlns="http://www.w3.org/2000/svg" xmlns:xlink="http://www.w3.org/1999/xlink">
    <g id="logo-see-civil" stroke="none" stroke-width="1" fill="none" fill-rule="evenodd">
        <path d="M16.6340663,102.089316 L61.1077201,102.089316 L61.1077201,120.029595 C61.1077201,125.919632 59.0406002,130.890615 54.9023144,134.936764 C50.7681903,138.977133 45.7979006,141.004832 39.9871679,141.004832 L0,141.004832 L0,124.220249 L39.9914453,124.220249 C42.8946152,124.220249 44.3462579,122.753231 44.3462579,119.804166 L44.3462579,118.601882 L0,118.601882 L0,100.661603 C0,94.9420823 2.06706203,90.0128321 6.20541722,85.8783612 C10.343784,81.7522138 15.2673927,79.6827819 20.9888789,79.6827819 L61.1077201,79.6827819 L61.1077201,96.4590414 L21.5152251,96.4590414 C20.1952556,96.4590414 19.0704261,96.9222677 18.149407,97.8697602 C17.2241104,98.8003746 16.714758,99.9391922 16.6299045,101.277774 L16.6299045,102.085154 L16.6340663,102.089316 Z M130.513745,100.245081 L130.513745,118.781069 L86.1118818,118.781069 L86.1118818,119.694342 C86.1118818,122.775196 87.6483781,124.309265 90.7213706,124.309265 L130.509121,124.309265 L130.509121,141.004832 L90.8062241,141.004832 C85.1781462,141.004832 80.2120182,138.977133 75.9039097,134.927516 C71.5958013,130.877899 69.4438279,126.03408 69.4438279,120.399528 L69.4438279,79.8527202 L108.747659,79.8527202 C114.638968,79.8527202 119.698966,81.7522138 123.917366,85.5510855 C128.314952,89.609142 130.513745,94.5085663 130.513745,100.245081 Z M113.756214,101.294652 C113.756214,98.1332224 112.177175,96.556727 109.015052,96.556727 L86.1161592,96.556727 L86.1161592,102.089316 L113.756214,102.089316 L113.756214,101.294652 Z M199.995376,100.245081 L199.995376,118.781069 L155.602183,118.781069 L155.602183,119.694342 C155.602183,122.775196 157.135095,124.309265 160.207856,124.309265 L199.995376,124.309265 L199.995376,141.004832 L160.301496,141.004832 C154.6681,141.004832 149.698273,138.977133 145.394326,134.927516 C141.086911,130.877899 138.93436,126.03408 138.93436,120.399528 L138.93436,79.8527202 L178.242122,79.8527202 C184.133315,79.8527202 189.188689,81.7522138 193.411713,85.5510855 C197.804675,89.609142 200,94.5085663 200,100.245081 M183.24663,101.294652 C183.24663,98.1332224 181.667476,96.556727 178.510323,96.556727 L155.611431,96.556727 L155.611431,102.089316 L183.251254,102.089316 L183.251254,101.294652 L183.24663,101.294652 Z M140.389818,40.4405678 L115.908303,40.4405678 L115.908303,15.9306143 L99.9997688,0 L28.1662852,71.9235393 L171.84227,71.9235393 L140.389818,40.4405678 Z M87.0244619,155.864604 L87.0244619,155.680794 C87.0244619,154.975608 86.7953342,154.462325 86.3284086,154.135165 C85.8657603,153.806848 85.131442,153.646158 84.1170146,153.646158 L79.7070588,153.646158 C77.8182007,153.646158 76.604356,153.875055 76.0652933,154.334004 C75.5262306,154.789485 75.2588379,155.745532 75.2588379,157.198677 L75.2588379,159.709602 C75.2588379,161.01015 75.5559409,161.902615 76.1544242,162.390465 C76.7529074,162.874847 77.9370419,163.117616 79.7070588,163.117616 L82.9030543,163.117616 C84.6560773,163.117616 85.8063397,162.943053 86.3495642,162.59046 C86.8929042,162.237867 87.168736,161.583547 87.168736,160.632124 L87.168736,160.436753 L92.7545028,160.436753 C92.7545028,160.457562 92.7545028,160.503803 92.7672193,160.568542 C92.7927678,161.094541 92.8054843,161.48644 92.8054843,161.745393 C92.8054843,162.901436 92.6569328,163.857483 92.3682689,164.608911 C92.0754433,165.361495 91.6212342,165.964949 90.997318,166.414649 C90.4115512,166.85279 89.6220897,167.162609 88.6416499,167.345264 C87.6610945,167.532543 86.2222839,167.626182 84.3207093,167.626182 L78.1705625,167.626182 C76.2859818,167.626182 74.9023144,167.52445 74.0151673,167.319831 C73.1280202,167.120991 72.3682689,166.776491 71.7359136,166.292109 C71.0100345,165.718712 70.4795265,165.01237 70.1484359,164.175395 C69.8173453,163.33842 69.6518,162.285265 69.6518,161.005526 L69.6518,156.080784 C69.6518,153.492405 70.2672771,151.686666 71.4939539,150.667037 C72.7247925,149.642783 74.9447412,149.132968 78.1705625,149.132968 L84.3207093,149.132968 C86.2986983,149.132968 87.7587801,149.221983 88.6967931,149.40117 C89.6348061,149.574576 90.3734018,149.876303 90.9124645,150.297103 C91.4853992,150.735243 91.909898,151.321357 92.1772907,152.064692 C92.4489607,152.804559 92.5847957,153.735174 92.5847957,154.848443 C92.5847957,155.116645 92.5847957,155.320108 92.5805184,155.459989 C92.576241,155.601027 92.5635245,155.736284 92.5508081,155.868072 L87.0244619,155.868072 L87.0244619,155.864604 Z M99.278167,167.410002 L94.6899494,167.410002 L94.6899494,154.640355 L99.278167,154.640355 L99.278167,167.410002 Z M99.278167,153.098194 L94.6899494,153.098194 L94.6899494,149.350304 L99.278167,149.350304 L99.278167,153.098194 Z M111.994752,167.410002 L106.213729,167.410002 L100.084738,154.640355 L105.246006,154.640355 L109.074588,163.589281 L113.034612,154.640355 L118.12328,154.640355 L111.994752,167.410002 Z M123.386743,167.410002 L118.798409,167.410002 L118.798409,154.640355 L123.386743,154.640355 L123.386743,167.410002 Z M123.386743,153.098194 L118.798409,153.098194 L118.798409,149.350304 L123.386743,149.350304 L123.386743,153.098194 Z M130.580796,149.350304 L125.992463,149.350304 L125.992463,167.410002 L130.580796,167.410002 L130.580796,149.350304 Z M66.9905898,155.702758 L0.373540496,155.702758 L0.373540496,160.521144 L66.9905898,160.521144 L66.9905898,155.702758 Z M199.914453,155.702758 L133.297496,155.702758 L133.297496,160.521144 L199.914453,160.521144 L199.914453,155.702758 Z" id="logo-see-civil" fill="#ff8a11" fill-rule="nonzero"></path>
    </g>
</svg>
