<svg width="40px" height="40px" viewBox="0 0 40 40" version="1.1" xmlns="http://www.w3.org/2000/svg" xmlns:xlink="http://www.w3.org/1999/xlink">
  <g id="icon-twitter" fill="#000000" fill-rule="nonzero">
      <path d="M17.9361448,23.8881125 C16.4880082,23.7418929 15.5635103,23.0646545 15.0355316,21.8116274 C15.4891105,21.8088274 15.8950295,21.8564073 16.3839984,21.7374676 C14.857132,21.2400387 14.0308639,20.3032409 13.9405801,18.7640646 C14.3941621,18.8990842 14.7784022,19.1061737 15.2356011,19.0676938 C13.8560753,17.5523074 13.6184509,16.4574 14.3811611,15.0756362 C16.0712591,16.9793187 18.1911042,18.0462462 20.810028,18.2232458 C20.7601881,17.7782869 20.7219082,17.3655078 20.808578,16.9513288 C21.2888869,14.6642572 24.0833104,13.7197624 25.9056061,15.2407528 C26.1013056,15.4044624 26.2602053,15.4562323 26.5130047,15.3848725 C27.0330034,15.2365528 27.5329023,15.0455523 28.0189011,14.7957859 C28.0211011,15.2015729 27.7994016,15.5087022 26.9066037,16.3440602 C27.1970031,16.3706402 27.4382025,16.2859904 27.6809019,16.2181205 C27.9323013,16.1481607 28.1807007,16.0698009 28.5,15.9746511 C28.1619008,16.4867799 27.7885017,16.8932589 27.3400027,17.2087982 C27.0424034,17.4186777 26.9868035,17.6495572 26.9854036,17.9713864 C26.9745036,21.5051881 24.6301091,24.8067004 21.2708269,25.9575977 C18.5789533,26.8796955 15.9824193,26.6236961 13.5,25.1984995 C15.1106514,25.2600993 16.5775679,24.8886002 17.9375848,23.8874125 L17.9361448,23.8881125 Z" id="icon"></path>
      <path d="M20,0 C31.045695,0 40,8.954305 40,20 C40,31.045695 31.045695,40 20,40 C8.954305,40 0,31.045695 0,20 C0,8.954305 8.954305,0 20,0 Z M20,0.7 C9.34090433,0.7 0.7,9.34090433 0.7,20 C0.7,30.6590957 9.34090433,39.3 20,39.3 C30.6590957,39.3 39.3,30.6590957 39.3,20 C39.3,9.34090433 30.6590957,0.7 20,0.7 Z" id="circle"></path>
  </g>
</svg>
