<svg width="40px" height="40px" viewBox="0 0 40 40" version="1.1" xmlns="http://www.w3.org/2000/svg" xmlns:xlink="http://www.w3.org/1999/xlink">
    <g id="icon-instagram" fill="#000000" fill-rule="nonzero">
        <path d="M24.4000414,14 C25.8360048,14 27,15.1640635 27,16.6000062 L27,16.6000062 L27,24.4000684 C27,25.8359282 25.8360048,27.0000269 24.4000414,27.0000269 L24.4000414,27.0000269 L16.6000104,27.0000269 C15.1640677,27.0000269 14,25.8359282 14,24.4000684 L14,24.4000684 L14,16.6000062 C14,15.1640635 15.1640677,14 16.6000104,14 L16.6000104,14 Z M20.500145,17.2506483 C18.7052166,17.2506483 17.2501346,18.70572 17.2501346,20.5006483 C17.2501346,22.2955871 18.7052166,23.7506587 20.500145,23.7506587 C22.2950734,23.7506587 23.7501554,22.2955871 23.7501554,20.5006483 C23.7501554,18.70572 22.2950734,17.2506483 20.500145,17.2506483 Z" id="icon"></path>
        <path d="M20,0 C31.045695,0 40,8.954305 40,20 C40,31.045695 31.045695,40 20,40 C8.954305,40 0,31.045695 0,20 C0,8.954305 8.954305,0 20,0 Z M20,0.7 C9.34090433,0.7 0.7,9.34090433 0.7,20 C0.7,30.6590957 9.34090433,39.3 20,39.3 C30.6590957,39.3 39.3,30.6590957 39.3,20 C39.3,9.34090433 30.6590957,0.7 20,0.7 Z" id="circle"></path>
    </g>
</svg>
