<svg width="40px" height="40px" viewBox="0 0 40 40" version="1.1" xmlns="http://www.w3.org/2000/svg" xmlns:xlink="http://www.w3.org/1999/xlink">
  <g id="icon-mail" fill="#000000" fill-rule="nonzero">
      <path d="M26,15 C26.2613867,15 26.5110618,15.0501433 26.7399307,15.1413353 L20.0833314,21.6666667 L20.6667353,22.2617166 L27.4448418,15.6170885 C27.7887293,15.9762783 28,16.4634667 28,17 L28,23 C28,24.1045695 27.1045695,25 26,25 L15,25 C13.8954305,25 13,24.1045695 13,23 L13,17 C13,16.3415744 13.31817,15.7574614 13.8091484,15.3930225 L20.0833305,21.666667 L20.6725862,21.0774113 L14.629054,15.0343343 C14.7492576,15.0117904 14.8732519,15 15,15 L26,15 Z" id="icon"></path>
      <path d="M20,0 C31.045695,0 40,8.954305 40,20 C40,31.045695 31.045695,40 20,40 C8.954305,40 0,31.045695 0,20 C0,8.954305 8.954305,0 20,0 Z M20,0.7 C9.34090433,0.7 0.7,9.34090433 0.7,20 C0.7,30.6590957 9.34090433,39.3 20,39.3 C30.6590957,39.3 39.3,30.6590957 39.3,20 C39.3,9.34090433 30.6590957,0.7 20,0.7 Z" id="circle"></path>
  </g>
</svg>
