<svg width="40px" height="40px" viewBox="0 0 40 40" version="1.1" xmlns="http://www.w3.org/2000/svg" xmlns:xlink="http://www.w3.org/1999/xlink">
  <g id="icon-arrow-lg" fill="#000000" fill-rule="nonzero">
      <path d="M20,0 C31.045695,0 40,8.954305 40,20 C40,31.045695 31.045695,40 20,40 C8.954305,40 0,31.045695 0,20 C0,8.954305 8.954305,0 20,0 Z M20,0.7 C9.34090433,0.7 0.7,9.34090433 0.7,20 C0.7,30.6590957 9.34090433,39.3 20,39.3 C30.6590957,39.3 39.3,30.6590957 39.3,20 C39.3,9.34090433 30.6590957,0.7 20,0.7 Z" id="circle"></path>
      <path d="M27.1992431,16.0589132 L32.1251448,20.2669885 L27.1992431,24.4750638 L26.7445696,23.9428308 L30.623,20.6279132 L8,20.6281745 L8,19.9281745 L30.649,19.9279132 L26.7445696,16.5911463 L27.1992431,16.0589132 Z" id="arrow"></path>
  </g>
</svg>
