<svg width="200" height="171" viewBox="0 0 200 171" fill="none" xmlns="http://www.w3.org/2000/svg">
<path class="see" d="M16.6314 100.921H61.1073V118.656C61.1073 124.48 59.0369 129.397 54.9003 133.394C50.7679 137.392 45.7955 139.395 39.9872 139.395H0V122.801H39.9916C42.8978 122.801 44.3445 121.356 44.3445 118.438V117.249H0V99.5136C0 93.8535 2.06619 88.9869 6.2028 84.9014C10.3394 80.8201 15.2651 78.7752 20.9843 78.7752H61.1031V95.3608H21.5147C20.1952 95.3608 19.0709 95.8185 18.1459 96.7507C17.221 97.6744 16.712 98.7955 16.627 100.118V100.921H16.6314ZM113.759 100.135C113.759 97.0112 112.177 95.4491 109.016 95.4491H86.1179V100.917H113.759V100.131V100.135ZM130.518 99.098V117.422H86.1179V118.325C86.1179 121.369 87.6538 122.888 90.7298 122.888H130.518V139.395H90.8146C85.1845 139.395 80.2206 137.388 75.91 133.386C71.5995 129.38 69.4484 124.594 69.4484 119.022V78.9391H108.757C114.65 78.9391 119.708 80.8161 123.925 84.5698C128.324 88.5798 130.526 93.4253 130.526 99.0938M183.241 100.135C183.241 97.0112 181.659 95.4491 178.503 95.4491H155.6V100.917H183.241V100.131V100.135ZM199.996 99.098V117.422H155.6V118.325C155.6 121.369 157.137 122.888 160.208 122.888H199.996V139.395H160.302C154.667 139.395 149.698 137.388 145.393 133.386C141.081 129.38 138.931 124.594 138.931 119.022V78.9391H178.239C184.129 78.9391 189.185 80.8161 193.411 84.5698C197.807 88.5798 200 93.4253 200 99.0938M140.395 39.9776H115.911V15.7458L100.004 0L28.1672 71.0998H171.841L140.395 39.9776Z" fill="#FF8A11"/>
<path class="group" d="M45.632 153.555V158.302H0V153.555H45.632ZM157.372 153.555V158.302H200V153.555H157.372ZM62.1622 158.068H69.6423C69.6423 158.78 69.6083 159.274 69.5447 159.551C69.4259 160.09 69.0016 160.409 68.2719 160.51C67.6057 160.589 65.7983 160.643 62.8452 160.672C60.2741 160.635 58.734 160.597 58.2248 160.552C57.1853 160.451 56.5658 159.974 56.3664 159.12C56.2094 158.478 56.1331 157.289 56.1331 155.544C56.1331 154.024 56.2052 152.965 56.3537 152.374C56.5362 151.591 57.058 151.123 57.9277 150.972C58.84 150.817 60.4905 150.742 62.8792 150.742C65.5055 150.742 67.2663 150.8 68.1701 150.918C68.8532 151.005 69.2605 151.281 69.3877 151.742C69.4345 151.923 69.4599 152.265 69.4683 152.768H75.1581C75.1581 152.002 75.1453 151.436 75.1156 151.068C74.9968 149.69 74.6702 148.685 74.1313 148.045C73.5203 147.334 72.4638 146.839 70.9576 146.563C69.4727 146.282 66.9439 146.145 63.3671 146.145C59.4001 146.145 56.464 146.312 54.5462 146.642C53.7147 146.785 53.0272 147.048 52.48 147.425C51.6781 147.974 51.1138 148.921 50.7828 150.26C50.5537 151.223 50.4391 152.915 50.4391 155.335C50.4391 156.682 50.4603 157.985 50.507 159.232C50.5452 160.22 50.6852 161.099 50.9314 161.862C51.432 163.428 52.7303 164.382 54.8262 164.722C56.341 164.973 58.857 165.098 62.3743 165.098C64.3727 165.098 66.0953 165.073 67.5421 165.019C68.9083 164.973 70.1684 164.839 71.314 164.613C73.5373 164.165 74.7592 162.875 74.9798 160.753C75.1156 159.437 75.1835 157.486 75.1835 154.894C75.1835 154.849 75.175 154.677 75.1581 154.384H62.1537V158.068H62.1622ZM77.2455 164.83H82.197V159.404C82.197 158.7 82.2096 158.194 82.2394 157.88C82.32 157.051 82.5194 156.44 82.8291 156.046C83.3213 155.418 84.153 155.1 85.3325 155.1C86.5883 155.1 87.3775 155.389 87.7 155.963C87.8654 156.268 87.946 156.804 87.946 157.566H92.6089C92.6259 157.097 92.6344 156.804 92.6344 156.691C92.6344 156.009 92.6047 155.426 92.541 154.95C92.4308 154.121 92.1592 153.433 91.7222 152.885C90.9457 151.906 89.4692 151.415 87.2927 151.415C85.6422 151.415 84.3862 151.683 83.5207 152.224C82.9904 152.555 82.5406 153.057 82.1672 153.723H81.9212V151.751H77.2583V164.826L77.2455 164.83ZM96.9749 151.918C95.545 152.341 94.5988 153.233 94.1448 154.589C93.937 155.238 93.8309 156.331 93.8309 157.867C93.8309 158.931 93.8564 159.844 93.9115 160.606C93.9582 161.234 94.0896 161.837 94.306 162.414C94.7813 163.637 95.7402 164.416 97.1913 164.751C98.3962 165.031 100.403 165.17 103.22 165.17C106.394 165.17 108.52 164.994 109.606 164.642C111.035 164.173 111.94 163.197 112.313 161.716C112.486 161.041 112.572 159.819 112.572 158.043C112.572 157.135 112.546 156.369 112.491 155.749C112.436 155.083 112.253 154.455 111.944 153.86C111.388 152.789 110.416 152.111 109.033 151.822C107.748 151.554 105.804 151.415 103.208 151.415C100.199 151.415 98.1204 151.583 96.9706 151.914L96.9749 151.918ZM105.575 155.263C106.457 155.418 107.03 155.716 107.285 156.168C107.515 156.553 107.629 157.252 107.629 158.261C107.629 159.015 107.578 159.58 107.48 159.949C107.353 160.417 107.098 160.761 106.717 160.987C106.152 161.318 104.994 161.485 103.241 161.485C102.185 161.485 101.354 161.43 100.751 161.322C99.8558 161.15 99.2872 160.819 99.0411 160.326C98.8671 159.965 98.7823 159.317 98.7823 158.383C98.7823 157.575 98.8545 156.955 99.0029 156.532C99.1684 156.038 99.4781 155.686 99.9322 155.481C100.505 155.23 101.612 155.105 103.254 155.105C104.184 155.105 104.96 155.159 105.579 155.267L105.575 155.263ZM132.292 151.755H127.341V157.018C127.341 157.901 127.32 158.529 127.273 158.906C127.184 159.76 126.913 160.376 126.467 160.757C125.894 161.242 124.804 161.485 123.2 161.485C122.152 161.485 121.371 161.414 120.862 161.267C120.116 161.062 119.648 160.606 119.466 159.907C119.356 159.458 119.301 158.739 119.301 157.746V151.755H114.35V157.746C114.35 158.961 114.366 159.76 114.404 160.15C114.507 161.318 114.816 162.255 115.334 162.955C115.872 163.691 116.539 164.223 117.332 164.546C118.372 164.96 119.831 165.165 121.707 165.165C123.705 165.165 125.173 164.884 126.124 164.328C126.653 164.022 127.069 163.537 127.379 162.871H127.625V164.826H132.288V151.751L132.292 151.755ZM139.484 170.265V163.139H139.718C140.256 164.01 141.033 164.588 142.055 164.863C142.747 165.06 143.837 165.161 145.323 165.161C147.592 165.161 149.234 164.994 150.244 164.663C151.593 164.231 152.471 163.315 152.883 161.913C153.104 161.175 153.21 159.986 153.21 158.349C153.21 156.485 153.074 155.146 152.798 154.33C152.416 153.187 151.606 152.404 150.363 151.981C149.234 151.604 147.622 151.415 145.535 151.415C144.478 151.415 143.519 151.47 142.662 151.579C141.907 151.666 141.224 151.888 140.613 152.24C140.159 152.499 139.773 152.932 139.463 153.534H139.191V151.755H134.529V170.265H139.479H139.484ZM146.32 155.246C147.231 155.418 147.809 155.791 148.054 156.365C148.19 156.695 148.258 157.273 148.258 158.089C148.258 158.906 148.22 159.446 148.148 159.814C148.037 160.326 147.804 160.702 147.452 160.933C146.905 161.292 145.721 161.472 143.896 161.472C142.81 161.472 141.937 161.405 141.27 161.271C140.468 161.109 139.955 160.761 139.726 160.22C139.561 159.835 139.479 159.236 139.479 158.424C139.479 157.03 139.722 156.126 140.205 155.712C140.689 155.296 141.971 155.091 144.049 155.091C145.042 155.091 145.797 155.142 146.32 155.238V155.246Z" fill="black"/>
</svg>
