<svg width="200px" height="171px" viewBox="0 0 200 171" version="1.1" xmlns="http://www.w3.org/2000/svg" xmlns:xlink="http://www.w3.org/1999/xlink">
    <g id="logo-see-group" stroke="none" stroke-width="1" fill="none" fill-rule="evenodd">
        <path d="M16.6313568,100.920603 L61.1073367,100.920603 L61.1073367,118.656281 C61.1073367,124.480402 59.0368844,129.396985 54.9003015,133.39397 C50.7679397,137.39196 45.7954774,139.394975 39.9872362,139.394975 L0,139.394975 L0,122.801005 L39.9915578,122.801005 C42.8977889,122.801005 44.3445226,121.355779 44.3445226,118.438191 L44.3445226,117.249246 L0,117.249246 L0,99.5135678 C0,93.8534673 2.06619095,88.9869347 6.20280402,84.901407 C10.339397,80.8201005 15.2651256,78.7751759 20.9843216,78.7751759 L61.1031156,78.7751759 L61.1031156,95.360804 L21.5146734,95.360804 C20.1951759,95.360804 19.0708543,95.8184925 18.1459296,96.7506533 C17.221005,97.6743719 16.7119598,98.7954774 16.6270352,100.118191 L16.6270352,100.920603 L16.6313568,100.920603 Z M113.758794,100.135075 C113.758794,97.0111558 112.176884,95.4491457 109.01608,95.4491457 L86.1178894,95.4491457 L86.1178894,100.916583 L113.758794,100.916583 L113.758794,100.130955 L113.758794,100.135075 Z M130.517588,99.0979899 L130.517588,117.422111 L86.1178894,117.422111 L86.1178894,118.324623 C86.1178894,121.368844 87.6537688,122.888442 90.7297487,122.888442 L130.517588,122.888442 L130.517588,139.394975 L90.8145729,139.394975 C85.1845226,139.394975 80.220603,137.38794 75.9100503,133.38593 C71.5994975,129.379899 69.4484422,124.59397 69.4484422,119.022111 L69.4484422,78.9390955 L108.756784,78.9390955 C114.650251,78.9390955 119.707538,80.8160804 123.924623,84.5698492 C128.323618,88.579799 130.525628,93.4253266 130.525628,99.0937688 M183.241206,100.135075 C183.241206,97.0111558 181.659296,95.4491457 178.502513,95.4491457 L155.6,95.4491457 L155.6,100.916583 L183.241206,100.916583 L183.241206,100.130955 L183.241206,100.135075 Z M199.99598,99.0979899 L199.99598,117.422111 L155.6,117.422111 L155.6,118.324623 C155.6,121.368844 157.136683,122.888442 160.20804,122.888442 L199.99598,122.888442 L199.99598,139.394975 L160.301508,139.394975 C154.667337,139.394975 149.698492,137.38794 145.392965,133.38593 C141.081407,129.379899 138.930653,124.59397 138.930653,119.022111 L138.930653,78.9390955 L178.239196,78.9390955 C184.128643,78.9390955 189.184925,80.8160804 193.411055,84.5698492 C197.807035,88.579799 200,93.4253266 200,99.0937688 M140.394975,39.9775879 L115.910553,39.9775879 L115.910553,15.7458291 L100.004322,2.84217094e-14 L28.1672362,71.099799 L171.841206,71.099799 L140.394975,39.9775879 Z M45.6319598,153.554774 L45.6319598,158.302513 L2.84217094e-14,158.302513 L2.84217094e-14,153.554774 L45.6319598,153.554774 Z M157.371859,153.554774 L157.371859,158.302513 L200,158.302513 L200,153.554774 L157.371859,153.554774 Z M62.1622111,158.068342 L69.6423116,158.068342 C69.6423116,158.779899 69.6083417,159.274372 69.5447236,159.550754 C69.4259296,160.090452 69.001608,160.409045 68.2718593,160.509548 C67.6057286,160.588945 65.7982915,160.643216 62.8452261,160.672362 C60.2740704,160.635176 58.7339698,160.596985 58.2248241,160.551759 C57.1853266,160.451256 56.5658291,159.973869 56.3664322,159.119598 C56.2094472,158.478392 56.1330653,157.289447 56.1330653,155.543719 C56.1330653,154.024121 56.2052261,152.964824 56.3536683,152.373869 C56.5361809,151.590955 57.0579899,151.122613 57.9277387,150.971859 C58.84,150.817085 60.4904523,150.741709 62.879196,150.741709 C65.5055276,150.741709 67.2663317,150.8 68.1700503,150.917588 C68.8531658,151.005025 69.2605025,151.281407 69.3877387,151.741709 C69.4344724,151.922613 69.4598995,152.265327 69.4683417,152.767839 L75.1580905,152.767839 C75.1580905,152.00201 75.1453266,151.436181 75.1155779,151.068342 C74.9967839,149.690452 74.6701508,148.685427 74.1312563,148.045226 C73.5203015,147.333668 72.4638191,146.839196 70.9575879,146.562814 C69.4726633,146.282412 66.9439196,146.144724 63.3671357,146.144724 C59.4001005,146.144724 56.4640201,146.311558 54.5462312,146.642211 C53.7146734,146.784925 53.0272362,147.048241 52.48,147.425126 C51.6780905,147.973869 51.1137688,148.920603 50.7828141,150.260302 C50.5536683,151.223116 50.4390955,152.914573 50.4390955,155.334673 C50.4390955,156.682412 50.4603015,157.984925 50.5070352,159.232161 C50.5452261,160.220101 50.6852261,161.099497 50.9313568,161.862312 C51.4319598,163.428141 52.7302513,164.38191 54.8262312,164.721608 C56.341005,164.972864 58.8569849,165.098492 62.3742714,165.098492 C64.3726633,165.098492 66.0952764,165.073367 67.5421106,165.019095 C68.9083417,164.972864 70.1684422,164.839196 71.3139698,164.613065 C73.5372864,164.164824 74.759196,162.875377 74.979799,160.752764 C75.1155779,159.437186 75.1835176,157.486432 75.1835176,154.894472 C75.1835176,154.849246 75.1749749,154.677387 75.1580905,154.38392 L62.1536683,154.38392 L62.1536683,158.068342 L62.1622111,158.068342 Z M77.2455276,164.830151 L82.1969849,164.830151 L82.1969849,159.40402 C82.1969849,158.700503 82.2096482,158.19397 82.239397,157.880402 C82.32,157.051256 82.519397,156.440201 82.8291457,156.046231 C83.3213065,155.41809 84.1529648,155.100503 85.3324623,155.100503 C86.5883417,155.100503 87.3774874,155.388945 87.7,155.962814 C87.8654271,156.268342 87.9460302,156.80402 87.9460302,157.565829 L92.6089447,157.565829 C92.6259296,157.097487 92.6343719,156.80402 92.6343719,156.691457 C92.6343719,156.009045 92.6047236,155.426131 92.541005,154.949749 C92.4307538,154.120603 92.159196,153.433166 91.7222111,152.885427 C90.9457286,151.905528 89.4692462,151.415075 87.2926633,151.415075 C85.6422111,151.415075 84.3862312,151.683417 83.5207035,152.224121 C82.9903518,152.554774 82.540603,153.057286 82.1672362,153.722613 L81.921206,153.722613 L81.921206,151.750754 L77.2582915,151.750754 L77.2582915,164.826131 L77.2455276,164.830151 Z M96.9748744,151.917588 C95.5450251,152.340704 94.598794,153.233166 94.1448241,154.588945 C93.9369849,155.238191 93.8308543,156.330653 93.8308543,157.867337 C93.8308543,158.930653 93.8563819,159.844221 93.9114573,160.60603 C93.958191,161.234171 94.0896482,161.837186 94.3060302,162.41407 C94.7813065,163.637186 95.740201,164.41608 97.1912563,164.750754 C98.3961809,165.031156 100.403116,165.169849 103.220101,165.169849 C106.39397,165.169849 108.519598,164.99397 109.60603,164.642211 C111.035176,164.172864 111.939698,163.196985 112.312563,161.715578 C112.486432,161.041206 112.571859,159.819095 112.571859,158.043216 C112.571859,157.134673 112.545729,156.368844 112.491457,155.748744 C112.436181,155.083417 112.253266,154.455276 111.943719,153.860302 C111.38794,152.788945 110.41608,152.110553 109.033166,151.822111 C107.747739,151.553769 105.80402,151.415075 103.20804,151.415075 C100.199397,151.415075 98.120402,151.582915 96.9705528,151.913568 L96.9748744,151.917588 Z M105.574874,155.263317 C106.457286,155.41809 107.030151,155.715578 107.285427,156.167839 C107.514573,156.552764 107.629146,157.252261 107.629146,158.261307 C107.629146,159.015075 107.577889,159.579899 107.480402,159.948744 C107.352764,160.417085 107.098492,160.760804 106.716583,160.986935 C106.151759,161.317588 104.99397,161.485427 103.241206,161.485427 C102.184925,161.485427 101.353769,161.430151 100.750754,161.321608 C99.8557789,161.149749 99.2872362,160.819095 99.0411055,160.325628 C98.8671357,159.964824 98.7823116,159.316583 98.7823116,158.382915 C98.7823116,157.574874 98.8544724,156.954774 99.0029146,156.531658 C99.1684422,156.038191 99.4780905,155.686432 99.9321608,155.481407 C100.504523,155.230151 101.61206,155.104523 103.254271,155.104523 C104.18392,155.104523 104.959799,155.158794 105.578894,155.267337 L105.574874,155.263317 Z M132.292462,151.754774 L127.340704,151.754774 L127.340704,157.01809 C127.340704,157.901508 127.319598,158.528643 127.273367,158.905528 C127.18392,159.759799 126.912563,160.375879 126.467337,160.756784 C125.894472,161.242211 124.80402,161.485427 123.2,161.485427 C122.151759,161.485427 121.370854,161.41407 120.862312,161.267337 C120.115578,161.062312 119.648241,160.60603 119.466332,159.906533 C119.355779,159.458291 119.300503,158.738693 119.300503,157.745729 L119.300503,151.754774 L114.349749,151.754774 L114.349749,157.745729 C114.349749,158.960804 114.365829,159.759799 114.40402,160.149749 C114.506533,161.317588 114.81608,162.255276 115.333668,162.954774 C115.872362,163.691457 116.538693,164.223116 117.331658,164.545729 C118.371859,164.959799 119.831156,165.164824 121.706533,165.164824 C123.704523,165.164824 125.172864,164.884422 126.123618,164.327638 C126.653266,164.022111 127.069347,163.536683 127.378894,162.871357 L127.625126,162.871357 L127.625126,164.826131 L132.288442,164.826131 L132.288442,151.750754 L132.292462,151.754774 Z M139.484422,170.265327 L139.484422,163.138693 L139.717588,163.138693 C140.256281,164.01005 141.033166,164.58794 142.055276,164.863317 C142.746734,165.060302 143.837186,165.160804 145.322613,165.160804 C147.59196,165.160804 149.234171,164.99397 150.244221,164.663317 C151.592965,164.231156 152.471357,163.314573 152.883417,161.912563 C153.103518,161.174874 153.21005,159.98593 153.21005,158.348744 C153.21005,156.485427 153.074372,155.145729 152.79799,154.329648 C152.41608,153.186935 151.60603,152.40402 150.362814,151.980905 C149.234171,151.60402 147.622111,151.415075 145.534673,151.415075 C144.478392,151.415075 143.518593,151.470352 142.662312,151.578894 C141.906533,151.666332 141.224121,151.888442 140.613065,152.240201 C140.158794,152.499497 139.772864,152.931658 139.463317,153.533668 L139.190955,153.533668 L139.190955,151.754774 L134.528643,151.754774 L134.528643,170.265327 L139.479397,170.265327 L139.484422,170.265327 Z M146.319598,155.246231 C147.231156,155.41809 147.809045,155.790955 148.054271,156.364824 C148.18995,156.695477 148.258291,157.273367 148.258291,158.089447 C148.258291,158.905528 148.220101,159.446231 148.147739,159.81407 C148.037186,160.325628 147.80402,160.702513 147.452261,160.932663 C146.904523,161.292462 145.720603,161.472362 143.896482,161.472362 C142.81005,161.472362 141.936683,161.405025 141.270352,161.271357 C140.468342,161.108543 139.954774,160.760804 139.725628,160.220101 C139.560804,159.835176 139.479397,159.236181 139.479397,158.424121 C139.479397,157.030151 139.721608,156.125628 140.205025,155.711558 C140.689447,155.296482 141.970854,155.091457 144.049246,155.091457 C145.042211,155.091457 145.796985,155.141709 146.319598,155.238191 L146.319598,155.246231 Z" id="logo-see-group" fill="#ff8a11" fill-rule="nonzero"></path>
    </g>
</svg>
